<svg id="logo" xmlns="http://www.w3.org/2000/svg" width="136.809" height="66.705" viewBox="0 0 136.809 66.705">
  <g id="Group_1" data-name="Group 1" transform="translate(85.738)">
    <path id="Path_2" data-name="Path 2" d="M142.78,45.126c0,12.242,7.432,22.159,16.6,22.159s16.6-9.924,16.6-22.159-7.432-22.166-16.6-22.166S142.78,32.884,142.78,45.126Z" transform="translate(-133.986 -10.85)" fill="#fefefe"/>
    <path id="Path_3" data-name="Path 3" d="M154.809,10.916a18.193,18.193,0,0,1,2.071-.667c2.951-.787,4.048-2.233,4.459-3.118.4.885,1.508,2.325,4.459,3.118a18.387,18.387,0,0,1,7.179,3.68l-5.008,5.879v.007a13,13,0,0,0-13.262,0v-.007L149.7,13.929a17.734,17.734,0,0,1,5.109-3.013Z" transform="translate(-135.913 -6.138)" fill="#fff688"/>
    <path id="Path_4" data-name="Path 4" d="M166.813,58.642a9.1,9.1,0,0,1-3.016.4c-.325-.014-.642-.042-.96-.084-.014,0-.036,0-.043.021l-.772,1.173a.229.229,0,0,1-.188.1.212.212,0,0,1-.188-.1l-.772-1.173c-.014-.014-.029-.028-.043-.021-.317.042-.635.07-.96.084a8.919,8.919,0,0,1-3.016-.4.086.086,0,0,1,.036-.169.64.64,0,0,0,.108.007,8.711,8.711,0,0,0,2.994-.337.04.04,0,0,0,.007-.077,9.034,9.034,0,0,1-2.237-14.532.15.15,0,0,1,.238.176,9.833,9.833,0,0,0-1.154,6.441,10.03,10.03,0,0,0,3.824,6.462.046.046,0,0,0,.072-.035l-.253-13.169a.153.153,0,0,1,.1-.14,2.614,2.614,0,0,0,1.14-.794.144.144,0,0,1,.216,0,2.674,2.674,0,0,0,1.14.794.144.144,0,0,1,.1.14l-.253,13.169a.046.046,0,0,0,.072.035,10.052,10.052,0,0,0,3.817-6.462,9.866,9.866,0,0,0-1.147-6.441.146.146,0,0,1,.231-.176,9.034,9.034,0,0,1-2.237,14.532c-.036.021-.036.07.007.077a8.711,8.711,0,0,0,2.994.337.64.64,0,0,0,.108-.007.086.086,0,0,1,.036.169h-.007Zm-4.986-16.716h0a1.422,1.422,0,0,1-1.1.555,1.357,1.357,0,0,1-.8-.274,1.7,1.7,0,0,1-.541-.709,1.906,1.906,0,0,1-.152-.688.1.1,0,0,1,.18-.042,1.34,1.34,0,0,0,2.323.2.114.114,0,0,1,.087-.042.1.1,0,0,1,.087.042,1.331,1.331,0,0,0,1.1.583,1.357,1.357,0,0,0,1.219-.78.094.094,0,0,1,.18.042,2.062,2.062,0,0,1-.144.688,1.7,1.7,0,0,1-.541.709,1.331,1.331,0,0,1-1.89-.281h0Zm8.5,8.787h0a9.428,9.428,0,0,0-3.117-7.241.212.212,0,0,1,.231-.351,7.821,7.821,0,0,1,4.733,7.136,7.735,7.735,0,0,1-3.045,6.132.213.213,0,0,1-.317-.274,10.1,10.1,0,0,0,1.508-5.4h0Zm-15.485,5.4h0c.13.2-.13.414-.317.274a7.735,7.735,0,0,1-3.045-6.132,7.821,7.821,0,0,1,4.733-7.136.212.212,0,0,1,.231.351,9.434,9.434,0,0,0-3.11,7.241,10.1,10.1,0,0,0,1.508,5.4Z" transform="translate(-136.409 -16.133)" fill="#ed3237"/>
    <path id="Path_5" data-name="Path 5" d="M160.707,18.488c-.022.155-.051.218-.072.218s-.051-.084-.065-.225a7.029,7.029,0,0,0-.325-1.545,5.33,5.33,0,0,0-.31-.752,3.833,3.833,0,0,0-.411-.681.328.328,0,0,1-.043-.323c.029-.119.065-.232.1-.344a2.82,2.82,0,0,0,.1-.351.25.25,0,0,1,.065-.126c.022-.014.051.014.094.077a4.963,4.963,0,0,1,.483.906,6.082,6.082,0,0,1,.325,1.025,6.013,6.013,0,0,1,.144,1.075,4.594,4.594,0,0,1-.079,1.054h0Z" transform="translate(-138.63 -8.288)" fill="#ed3237"/>
    <path id="Path_6" data-name="Path 6" d="M164.9,15.293a.8.8,0,0,1-.4.323.547.547,0,0,1-.512-.147c-.043-.042-.072-.063-.072-.049l-.087.084a.741.741,0,0,1-.31.225c-.029.014-.043.014-.043.021a.159.159,0,0,0,.014.063,5.648,5.648,0,0,1,.267,1.32,4.851,4.851,0,0,1-.087,1.363c-.029.126-.051.176-.072.169s-.036-.077-.043-.2a7.338,7.338,0,0,0-.339-1.665,4.96,4.96,0,0,0-.693-1.342.375.375,0,0,1-.072-.33c.029-.112.065-.232.108-.351s.079-.246.13-.379a.371.371,0,0,1,.043-.091c.014-.014.029,0,.058.042a1.706,1.706,0,0,0,.31.281.7.7,0,0,0,.375.147.47.47,0,0,0,.2-.035.7.7,0,0,0,.18-.112.782.782,0,0,0,.144-.162.908.908,0,0,0,.1-.183c.029-.077.051-.105.072-.091a.384.384,0,0,1,.079.091,1.222,1.222,0,0,0,.166.232.34.34,0,0,0,.267.091.514.514,0,0,0,.491-.33c.022-.056.043-.091.065-.091s.029.028.022.1a1.956,1.956,0,0,1-.108.527,1.8,1.8,0,0,1-.238.485h0Z" transform="translate(-139.458 -8.239)" fill="#ed3237"/>
    <path id="Path_7" data-name="Path 7" d="M167.111,17.812a1.911,1.911,0,0,1-.2.379c-.094.112-.173.169-.231.169a.619.619,0,0,1-.253-.084c-.079-.035-.159-.077-.224-.112s-.137-.077-.2-.112-.079-.056-.079-.07a.392.392,0,0,1,.029-.112c.051-.119.108-.239.159-.358s.108-.239.166-.358c.029-.07.065-.105.094-.112a.213.213,0,0,1,.137.042c.094.049.188.1.289.155a1.236,1.236,0,0,1,.267.2.215.215,0,0,1,.087.176,1.213,1.213,0,0,1-.036.2h0Z" transform="translate(-140.429 -9.087)" fill="#ed3237"/>
    <path id="Path_8" data-name="Path 8" d="M171.1,14.867a1.155,1.155,0,0,1-.022.232.429.429,0,0,1-.1.2,4.971,4.971,0,0,0-.88,1.482,8.521,8.521,0,0,0-.44,1.672c-.029.155-.058.232-.094.225s-.065-.084-.087-.246a5.647,5.647,0,0,0-1.147-2.838.434.434,0,0,1-.079-.169.463.463,0,0,1,.007-.2c.014-.1.036-.211.065-.33s.051-.253.079-.393c.014-.091.051-.1.1-.028a7.52,7.52,0,0,1,1.111,2.367q.032.095.065,0a3.787,3.787,0,0,1,.195-.639,6.526,6.526,0,0,1,.3-.653,4.984,4.984,0,0,1,.375-.625,5.987,5.987,0,0,1,.433-.569c.051-.063.087-.091.1-.084s.022.042.022.119v.478Z" transform="translate(-141.075 -8.263)" fill="#ed3237"/>
    <path id="Path_9" data-name="Path 9" d="M180.724,41.122a12.549,12.549,0,0,0,.722-1.131,1.317,1.317,0,0,0,.216-.674,1.3,1.3,0,0,0-.433-.829,2.167,2.167,0,0,1-.173-.2,1.565,1.565,0,0,1-.281-1.215c.014-.063.029-.133.043-.2a1.606,1.606,0,0,0,.072-.5.634.634,0,0,0-.541-.66.673.673,0,0,0-.317.1,4.037,4.037,0,0,0-.44.309c-.1.077-.2.155-.3.218a.752.752,0,0,1-.462.176,1.7,1.7,0,0,0-.368-.379,2.557,2.557,0,0,1-.281-.274,1.867,1.867,0,0,1-.224-.428c-.036-.084-.079-.169-.123-.253a1.933,1.933,0,0,1,.137-.752,2.876,2.876,0,0,1,.253-.457c.058-.091.123-.183.173-.281a4.958,4.958,0,0,0,.4-1.054,1.688,1.688,0,0,0-.029-1.468,1.124,1.124,0,0,0-.144-.169.664.664,0,0,1-.152-.218.724.724,0,0,1,.036-.4,11.01,11.01,0,0,0,.216-1.2,1.094,1.094,0,0,0-.065-.639,1.156,1.156,0,0,0-.729-.492c-.079-.028-.159-.056-.238-.091a1.3,1.3,0,0,1-.714-.836,1.52,1.52,0,0,1-.036-.176,1.665,1.665,0,0,0-.13-.435.605.605,0,0,0-.743-.309.672.672,0,0,0-.238.2,3.55,3.55,0,0,0-.274.428c-.065.105-.123.2-.188.3a.988.988,0,0,1-.382.337,2.036,2.036,0,0,0-.483-.155,1.8,1.8,0,0,1-.361-.105,1.561,1.561,0,0,1-.375-.246,2.685,2.685,0,0,0-.274-.2.015.015,0,0,1-.014-.014,2.128,2.128,0,0,1,.051-.386,3.025,3.025,0,0,1,.18-.485c.043-.1.094-.2.13-.309a5.027,5.027,0,0,0,.238-1.1,1.7,1.7,0,0,0-.253-1.447,1.077,1.077,0,0,0-.166-.147.685.685,0,0,1-.188-.2.794.794,0,0,1-.029-.4,9.759,9.759,0,0,0,.029-1.215,1.156,1.156,0,0,0-.159-.625,1.2,1.2,0,0,0-.8-.386c-.079-.014-.166-.028-.245-.049a1.327,1.327,0,0,1-.837-.723,1.619,1.619,0,0,1-.065-.169,1.326,1.326,0,0,0-.195-.407.611.611,0,0,0-.779-.2.629.629,0,0,0-.209.232,3.279,3.279,0,0,0-.209.464c-.043.112-.087.218-.137.323a.906.906,0,0,1-.332.386,1.987,1.987,0,0,0-.5-.077,2.85,2.85,0,0,1-.375-.049,1.746,1.746,0,0,1-.4-.19,2.027,2.027,0,0,0-.3-.155.884.884,0,0,0-.981.1c-.361.372-.079.885.13,1.257a1.127,1.127,0,0,1,.072.126,1.781,1.781,0,0,1,.2.941.1.1,0,0,0-.043-.014,6.093,6.093,0,0,0-1.869-.232c-.253-.007-.419.105-.433.288a1.249,1.249,0,0,0,.5,1.032,3.454,3.454,0,0,1,.859,1.264c.058.14.1.288.144.428a3.213,3.213,0,0,0,.447,1,3.438,3.438,0,0,0,1.191.9,3.743,3.743,0,0,1,.924.618c.043.042.079.084.123.126a2.1,2.1,0,0,0,.346.316,1.923,1.923,0,0,0,.823.246c.108.014.216.028.317.049a3.2,3.2,0,0,1,1.927.892,1.385,1.385,0,0,1-.036.3.152.152,0,0,1-.043-.028,6.417,6.417,0,0,0-1.818-.5c-.245-.042-.433.049-.476.218a1.252,1.252,0,0,0,.332,1.1,3.441,3.441,0,0,1,.657,1.377c.029.147.058.3.079.442a3.021,3.021,0,0,0,.289,1.054,3.288,3.288,0,0,0,1.039,1.061,3.726,3.726,0,0,1,.815.745c.036.049.065.091.1.14a1.782,1.782,0,0,0,.3.365,1.888,1.888,0,0,0,.772.358c.108.028.209.063.31.1.707.267,1.111.6,1.241,1.032a2.421,2.421,0,0,1-.245.492.024.024,0,0,1-.007-.014,6.143,6.143,0,0,0-1.429-1.356.485.485,0,0,0-.354-.119.314.314,0,0,0-.2.119,1.536,1.536,0,0,0-.173,1.257,4.293,4.293,0,0,1-.014,1.742c-.036.169-.079.337-.123.5a4.206,4.206,0,0,0-.209,1.208,3.976,3.976,0,0,0,.469,1.559,4.72,4.72,0,0,1,.419,1.152,1.853,1.853,0,0,1,.029.2,2.114,2.114,0,0,0,.108.506,2.037,2.037,0,0,0,.534.723c.087.077.159.162.231.239a1.5,1.5,0,0,1,.426.871,10.009,10.009,0,0,0-.722-.815.472.472,0,0,0-.332-.169.321.321,0,0,0-.224.091,1.564,1.564,0,0,0-.375,1.208,4.34,4.34,0,0,1-.3,1.714c-.065.162-.137.323-.2.471a4.229,4.229,0,0,0-.4,1.166,3.939,3.939,0,0,0,.216,1.615,4.4,4.4,0,0,1,.224,1.2v.2a2.12,2.12,0,0,0,.022.52,2.028,2.028,0,0,0,.411.8c.065.091.13.183.188.274a2.541,2.541,0,0,1,.188,1.861l-.007.007v-.014a6.065,6.065,0,0,0-.462-1.889.483.483,0,0,0-.238-.281.282.282,0,0,0-.238,0,1.578,1.578,0,0,0-.837.969,4.438,4.438,0,0,1-.967,1.468c-.123.119-.253.239-.375.351a4.545,4.545,0,0,0-.844.92,3.956,3.956,0,0,0-.455,1.559,4.478,4.478,0,0,1-.281,1.187c-.029.063-.051.119-.087.183a2.611,2.611,0,0,0-.188.485,2.043,2.043,0,0,0,.058.892,2.834,2.834,0,0,1,.065.323,2.948,2.948,0,0,1-.823,1.931h-.007a.024.024,0,0,1,.007-.014,5.748,5.748,0,0,0,.2-1.931.456.456,0,0,0-.123-.337.292.292,0,0,0-.224-.077,1.648,1.648,0,0,0-1.118.646,4.48,4.48,0,0,1-1.414,1.075c-.152.077-.317.14-.476.211a4.3,4.3,0,0,0-1.1.6,4.113,4.113,0,0,0-.96,1.327,4.514,4.514,0,0,1-.671,1.032c-.043.049-.094.1-.137.14a2.38,2.38,0,0,0-.346.4,1.976,1.976,0,0,0-.245.857c-.014.112-.029.218-.05.323a1.623,1.623,0,0,1-.584,1.1v-.913a.85.85,0,0,0-.859-.836H158.7a4.36,4.36,0,0,1-1.147-.126,5.763,5.763,0,0,1-.62-.169,2.484,2.484,0,0,0-.888-.162,2.449,2.449,0,0,0-.9.162,4.791,4.791,0,0,1-.621.169,4.409,4.409,0,0,1-1.154.126h-1.833a.845.845,0,0,0-.859.836v1.489c-.1-.063-.2-.133-.3-.2a5.275,5.275,0,0,0-1.616-4.214,10.6,10.6,0,0,0-1.847-1.377,6.521,6.521,0,0,1-2.352-2.086.221.221,0,0,0-.224-.105.2.2,0,0,0-.159.19,8.864,8.864,0,0,0,.022,1.356,5.332,5.332,0,0,0,.39,1.271,11.258,11.258,0,0,1-1.111-.33,5.754,5.754,0,0,1-.887-.442,4.8,4.8,0,0,0,.13-4.411,10.84,10.84,0,0,0-1.241-1.917,6.289,6.289,0,0,1-1.465-2.746.2.2,0,0,0-.173-.169.209.209,0,0,0-.216.119,9.176,9.176,0,0,0-.462,1.278,5.482,5.482,0,0,0-.079,1.32,10.042,10.042,0,0,1-.924-.688,4.94,4.94,0,0,1-.657-.688,4.843,4.843,0,0,0,1.537-4.025,10.168,10.168,0,0,0-.512-2.212,6.169,6.169,0,0,1-.433-3.069.192.192,0,0,0-.108-.218.2.2,0,0,0-.245.042,8.805,8.805,0,0,0-.873,1.054,5.339,5.339,0,0,0-.534,1.215c-.224-.309-.447-.625-.635-.948a4.592,4.592,0,0,1-.39-.892,5.3,5.3,0,0,0,2.828-3.5,9.844,9.844,0,0,0,.224-2.255,6.232,6.232,0,0,1,.577-3.048.208.208,0,0,0-.029-.239.212.212,0,0,0-.245-.035,10.952,10.952,0,0,0-1.176.73,5.292,5.292,0,0,0-.895.99c-.108-.358-.224-.73-.3-1.1a4.185,4.185,0,0,1-.079-.892,5.023,5.023,0,0,0,3.391-2.746,10.682,10.682,0,0,0,.693-2.163,6.319,6.319,0,0,1,1.2-2.873.2.2,0,0,0,.014-.246.205.205,0,0,0-.238-.077,10.953,10.953,0,0,0-1.3.485,5.587,5.587,0,0,0-1.082.794,9.989,9.989,0,0,1-.065-1.131,4.831,4.831,0,0,1,.123-.983,3.6,3.6,0,0,0,.548.035,4.986,4.986,0,0,0,3.283-1.285,10.644,10.644,0,0,0,1.393-1.658,6.067,6.067,0,0,1,2.085-2.093.2.2,0,0,0-.079-.379,9.918,9.918,0,0,0-1.32-.021,5.347,5.347,0,0,0-1.219.316A9.492,9.492,0,0,1,144,22.5a4.3,4.3,0,0,1,.685-1.1.917.917,0,0,1,.087-.1,3.139,3.139,0,0,1,.678-.66.222.222,0,0,0,.108-.267.217.217,0,0,0-.245-.14,9.786,9.786,0,0,0-3.449,1.271,3.089,3.089,0,0,0-.159-2.163,4.288,4.288,0,0,0-.39-.534.211.211,0,0,0-.216-.07.216.216,0,0,0-.159.162,4.4,4.4,0,0,1-1.241,2.318c-.216.211-.455.407-.693.6s-.5.4-.722.625a5.516,5.516,0,0,0-.823,5.731,9.492,9.492,0,0,0-1.133,1.271,3.31,3.31,0,0,0-1.039-2.086,4.879,4.879,0,0,0-.6-.372.2.2,0,0,0-.224.014.211.211,0,0,0-.079.211,4.646,4.646,0,0,1-.274,2.76,8.767,8.767,0,0,1-.44.857c-.159.288-.317.583-.455.885A5.467,5.467,0,0,0,134.53,37.5a9.258,9.258,0,0,0-.714,1.271,3.381,3.381,0,0,0-1.443-1.84,4.895,4.895,0,0,0-.664-.246.2.2,0,0,0-.216.056.2.2,0,0,0-.036.218,4.589,4.589,0,0,1,.3,2.76c-.065.309-.159.625-.253.92a9.935,9.935,0,0,0-.26.962,5.821,5.821,0,0,0,2.569,5.542,10.087,10.087,0,0,0-.346,1.707,3.46,3.46,0,0,0-1.963-1.306,4.823,4.823,0,0,0-.707-.035.207.207,0,0,0-.188.119.189.189,0,0,0,.036.218,4.739,4.739,0,0,1,1.176,2.528,8.382,8.382,0,0,1,.058.955,9.216,9.216,0,0,0,.058.99,5.947,5.947,0,0,0,4.243,4.411,9.9,9.9,0,0,0,.26,1.622,3.508,3.508,0,0,0-2.3-.59,5,5,0,0,0-.678.2.2.2,0,0,0-.137.176.2.2,0,0,0,.108.2,4.807,4.807,0,0,1,1.977,1.995c.144.281.267.59.39.885a9.209,9.209,0,0,0,.4.913,5.755,5.755,0,0,0,4.979,2.809c.152,0,.31-.007.462-.021a10.2,10.2,0,0,0,.88,1.573,3.5,3.5,0,0,0-2.367.225,5.418,5.418,0,0,0-.57.414.2.2,0,0,0-.065.211.218.218,0,0,0,.173.147,4.938,4.938,0,0,1,2.569,1.208,7.737,7.737,0,0,1,.671.7c.224.246.447.492.7.723a6.206,6.206,0,0,0,4.755,1.721,22.375,22.375,0,0,0,4.611-.59,2.124,2.124,0,0,1,.83.723h.007a.373.373,0,0,0,.072.14l.115.14a5.8,5.8,0,0,1-3.608.309c-.693-.112-.938.126-1.025.274a.781.781,0,0,0,.159.836,7.249,7.249,0,0,1-4.9-.232.192.192,0,0,0-.238.105.18.18,0,0,0,.094.232l2.432,1.131-.685.752a.186.186,0,0,0-.036.183.169.169,0,0,0,.137.119,14.015,14.015,0,0,0,2.468.239,5.4,5.4,0,0,0,3.016-.709.406.406,0,0,0,.173-.393.436.436,0,0,0-.289-.337c-.108-.042-.209-.084-.31-.126.094.007.188.007.274.007a3.917,3.917,0,0,0,3.247-1.271.9.9,0,0,0,.779.133l.346-.091.354.091a.873.873,0,0,0,.267.035.838.838,0,0,0,.512-.162,3.889,3.889,0,0,0,3.24,1.271c.094,0,.18-.007.281-.007-.1.042-.2.084-.31.126a.424.424,0,0,0-.289.337.4.4,0,0,0,.166.393,5.41,5.41,0,0,0,3.023.709,13.293,13.293,0,0,0,2.468-.239.181.181,0,0,0,.137-.119.186.186,0,0,0-.036-.183l-.685-.752,2.432-1.131a.184.184,0,0,0,.094-.239.2.2,0,0,0-.238-.105,7.248,7.248,0,0,1-4.9.232.767.767,0,0,0,.159-.836c-.079-.155-.332-.386-1.025-.274a5.89,5.89,0,0,1-3.615-.309l.115-.14a.436.436,0,0,0,.072-.14h.007a1.979,1.979,0,0,1,.75-.674,3.143,3.143,0,0,0,1.364.295,5.593,5.593,0,0,0,2.107-.478,1.411,1.411,0,0,0,.281-.169,1.912,1.912,0,0,1,1.017-.169,3.142,3.142,0,0,1,.548.105c.108.028.224.063.346.084a5.667,5.667,0,0,0,1.241.07,2.176,2.176,0,0,0,1.587-.471c.058-.063.108-.126.159-.183a.965.965,0,0,1,.224-.225.933.933,0,0,1,.462-.091,12.864,12.864,0,0,0,1.364-.155,1.409,1.409,0,0,0,.678-.253,1.3,1.3,0,0,0,.4-.85c.014-.091.036-.176.058-.26a1.656,1.656,0,0,1,.8-.976,1.531,1.531,0,0,1,.188-.091,1.8,1.8,0,0,0,.447-.26.606.606,0,0,0,.188-.822.626.626,0,0,0-.281-.183,3.656,3.656,0,0,0-.527-.14,2.44,2.44,0,0,1-.361-.091.92.92,0,0,1-.426-.246,2.159,2.159,0,0,0,.079-.513,2.028,2.028,0,0,1,.043-.379,1.724,1.724,0,0,1,.2-.442l.043-.084a1.887,1.887,0,0,1,.837-.457,2.784,2.784,0,0,1,.556-.077,3.012,3.012,0,0,0,.354-.035,6.208,6.208,0,0,0,1.191-.33,2.134,2.134,0,0,0,1.342-.955,1.771,1.771,0,0,0,.087-.225.977.977,0,0,1,.13-.288,1.047,1.047,0,0,1,.4-.239,12.161,12.161,0,0,0,1.227-.583,1.369,1.369,0,0,0,.556-.457,1.287,1.287,0,0,0,.087-.934c-.014-.091-.029-.176-.036-.26a1.6,1.6,0,0,1,.426-1.18,1.349,1.349,0,0,1,.144-.14,1.977,1.977,0,0,0,.332-.386.609.609,0,0,0-.1-.836.746.746,0,0,0-.325-.084,3.386,3.386,0,0,0-.541.035c-.13.014-.253.028-.375.035a1.007,1.007,0,0,1-.491-.1,1.708,1.708,0,0,0-.1-.513,1.527,1.527,0,0,1-.087-.372,1.945,1.945,0,0,1,.043-.485,3.051,3.051,0,0,0,.05-.358v-.084h0a2.513,2.513,0,0,1,.354-.337,2.693,2.693,0,0,1,.483-.281,3.472,3.472,0,0,0,.318-.169,6.26,6.26,0,0,0,.96-.759,2.1,2.1,0,0,0,.851-1.391c0-.084-.007-.162-.014-.239a.915.915,0,0,1,.007-.316.973.973,0,0,1,.274-.372,12,12,0,0,0,.895-1,1.368,1.368,0,0,0,.325-.632,1.313,1.313,0,0,0-.3-.892c-.051-.077-.094-.147-.137-.225a1.593,1.593,0,0,1-.079-1.25c.022-.063.051-.126.079-.19a1.921,1.921,0,0,0,.152-.485.619.619,0,0,0-.433-.73.707.707,0,0,0-.332.042,2.819,2.819,0,0,0-.483.246c-.115.063-.224.126-.332.176a.856.856,0,0,1-.483.091,2.1,2.1,0,0,0-.3-.428,2.624,2.624,0,0,1-.231-.309,1.714,1.714,0,0,1-.144-.421.71.71,0,0,1,.094-.105,2.658,2.658,0,0,1,.433-.351c.094-.07.188-.14.281-.218a5.83,5.83,0,0,0,.83-.9,2.043,2.043,0,0,0,.613-1.5c-.014-.084-.036-.162-.051-.232a.992.992,0,0,1-.043-.309.867.867,0,0,1,.216-.407h.007Zm-5.051-13.8h0c.072-.105.137-.218.2-.323a2.486,2.486,0,0,1,.245-.379.3.3,0,0,1,.1-.091c.072-.028.195.042.253.147a1.112,1.112,0,0,1,.094.33c.014.063.029.133.043.2a1.632,1.632,0,0,0,.924,1.082c.087.042.173.07.26.105a.881.881,0,0,1,.519.316.786.786,0,0,1,.029.435,8.269,8.269,0,0,1-.216,1.166,1.022,1.022,0,0,0-.022.59,1.065,1.065,0,0,0,.224.344,1.446,1.446,0,0,1,.108.133,1.384,1.384,0,0,1-.014,1.159,4.635,4.635,0,0,1-.375.983c-.051.091-.108.183-.166.267a3.038,3.038,0,0,0-.289.52,2.734,2.734,0,0,0-.13.457.775.775,0,0,0-.195-.112,8.7,8.7,0,0,0,.115-2.219,1.637,1.637,0,0,0-.281-1.068c-.043-.07-.087-.133-.123-.2a1.441,1.441,0,0,1-.036-.709,1.5,1.5,0,0,0-.13-.983,1.654,1.654,0,0,0-.736-.548,1.164,1.164,0,0,1-.6-.442.849.849,0,0,1-.072-.288,1.307,1.307,0,0,0-.152-.457,1.511,1.511,0,0,0,.4-.393h0Zm-5.505-7.663h0a3.616,3.616,0,0,0,.144-.351,2.137,2.137,0,0,1,.188-.407.257.257,0,0,1,.087-.105c.065-.042.2.014.267.105a1.068,1.068,0,0,1,.144.316c.022.063.043.126.072.19a1.654,1.654,0,0,0,1.082.934c.094.028.18.042.274.063a.9.9,0,0,1,.563.239.73.73,0,0,1,.094.428,10.785,10.785,0,0,1-.029,1.18,1.126,1.126,0,0,0,.065.59,1.079,1.079,0,0,0,.281.309c.043.042.094.077.13.119a1.4,1.4,0,0,1,.159,1.145,4.482,4.482,0,0,1-.216,1.025c-.036.1-.079.2-.123.288a2.768,2.768,0,0,0-.2.548,1.687,1.687,0,0,0-.043.323,1.13,1.13,0,0,0-.216-.021,8.967,8.967,0,0,0-.231-2.128,2.011,2.011,0,0,0-.289-.822,2.266,2.266,0,0,0-.159-.19,1.741,1.741,0,0,1-.152-.19,1.465,1.465,0,0,1-.144-.7,1.448,1.448,0,0,0-.281-.955,1.661,1.661,0,0,0-.815-.428,1.2,1.2,0,0,1-.657-.351.958.958,0,0,1-.115-.274,1.338,1.338,0,0,0-.216-.428,1.386,1.386,0,0,0,.332-.45h0Zm-2.691,1.068h0a.793.793,0,0,1-.072-.133c-.2-.365-.346-.66-.188-.829.123-.126.368-.091.548-.014.087.042.173.091.267.14a1.678,1.678,0,0,0,.5.225,2.366,2.366,0,0,0,.447.063.835.835,0,0,1,.563.155.806.806,0,0,1,.159.323,1.6,1.6,0,0,0,.159.365,1.469,1.469,0,0,0,.859.5,1.4,1.4,0,0,1,.642.316,1.2,1.2,0,0,1,.188.737,1.733,1.733,0,0,0,.2.864,1.575,1.575,0,0,0,.188.232,1.233,1.233,0,0,1,.13.155,1.668,1.668,0,0,1,.231.681,8.172,8.172,0,0,1,.216,2.191h0a.573.573,0,0,0-.188.232,4.24,4.24,0,0,0-1.205-.871c-.072-.042-.144-.077-.216-.112a1.351,1.351,0,0,1-.577-.4,1.289,1.289,0,0,1-.152-.442,1.228,1.228,0,0,0-.346-.709,1.33,1.33,0,0,0-.44-.211,1.084,1.084,0,0,1-.3-.133.989.989,0,0,1-.267-.611c-.022-.112-.051-.225-.079-.337a2.024,2.024,0,0,0-1.017-1.117,2.211,2.211,0,0,0-.231-1.271h0Zm3.269,6.785h0a2.964,2.964,0,0,0-.346-.056,1.619,1.619,0,0,1-.664-.183,1.6,1.6,0,0,1-.281-.26c-.043-.049-.087-.091-.137-.14a4.34,4.34,0,0,0-1.01-.674,3.043,3.043,0,0,1-1.068-.794,2.922,2.922,0,0,1-.39-.9c-.043-.147-.094-.3-.152-.45a3.77,3.77,0,0,0-.952-1.4.978.978,0,0,1-.39-.681h.058a5.853,5.853,0,0,1,1.753.211,1.785,1.785,0,0,1,1.183,1.054c.029.091.05.2.072.3a1.318,1.318,0,0,0,.4.829,1.568,1.568,0,0,0,.411.2.9.9,0,0,1,.31.147.856.856,0,0,1,.224.513,1.843,1.843,0,0,0,.2.555,1.684,1.684,0,0,0,.729.534,1.811,1.811,0,0,1,.2.105,2.66,2.66,0,0,1,1.407,1.3h0c.029.1.065.19.094.274.014.049.036.091.051.133a.643.643,0,0,0,.022.063,5.52,5.52,0,0,0-1.768-.66h.007Zm2.1.471h0a1.007,1.007,0,0,0-.051-.133c-.144-.393-.245-.7-.058-.85a.529.529,0,0,1,.548.063,2.587,2.587,0,0,1,.238.176,2.272,2.272,0,0,0,.455.295,2.344,2.344,0,0,0,.433.126.872.872,0,0,1,.534.239.78.78,0,0,1,.108.337,1.48,1.48,0,0,0,.1.379,1.439,1.439,0,0,0,.772.618,1.343,1.343,0,0,1,.584.407,1.192,1.192,0,0,1,.072.759,1.385,1.385,0,0,0,.209,1.145q.065.095.108.169a1.657,1.657,0,0,1,.123.709,8.19,8.19,0,0,1-.115,2.17.027.027,0,0,0-.022.007.606.606,0,0,0-.39.3,2.536,2.536,0,0,0-.866-1.11c-.065-.049-.137-.091-.2-.14a1.272,1.272,0,0,1-.505-.485,1.291,1.291,0,0,1-.087-.457,1.226,1.226,0,0,0-.238-.752,1.143,1.143,0,0,0-.4-.274,1.186,1.186,0,0,1-.281-.176,1,1,0,0,1-.173-.646c-.007-.112-.014-.232-.029-.351a2.04,2.04,0,0,0-.83-1.25,2.138,2.138,0,0,0-.036-1.292V27.96Zm2.194,7.185h0c-.108-.042-.224-.07-.332-.105a1.548,1.548,0,0,1-.628-.281,1.734,1.734,0,0,1-.238-.295c-.036-.056-.072-.105-.108-.155a4.238,4.238,0,0,0-.895-.815,3.157,3.157,0,0,1-.938-.934,3.023,3.023,0,0,1-.245-.941c-.029-.155-.051-.309-.079-.471a3.825,3.825,0,0,0-.729-1.531.942.942,0,0,1-.274-.73.126.126,0,0,1,.051.007,5.872,5.872,0,0,1,1.7.464,1.776,1.776,0,0,1,1.01,1.215c.014.1.022.2.029.309a1.278,1.278,0,0,0,.274.878,1.332,1.332,0,0,0,.382.253,1.067,1.067,0,0,1,.289.19.857.857,0,0,1,.144.534,1.644,1.644,0,0,0,.115.583,1.746,1.746,0,0,0,.635.632,1.788,1.788,0,0,1,.188.133,2.1,2.1,0,0,1,.888,1.636c-.007.049-.007.091-.014.133a.674.674,0,0,1-.014.119,2.78,2.78,0,0,0-1.227-.815h.007Zm1.616.892h0a1.216,1.216,0,0,1,.014-.162c.036-.379.072-.85.317-.913.159-.042.332.133.44.316.014.028.029.063.051.1a.7.7,0,0,0,.065.147.34.34,0,0,1,.022.049,2,2,0,0,0,.281.513,2.035,2.035,0,0,0,.332.323.939.939,0,0,1,.382.506,1.083,1.083,0,0,1-.058.414,1.67,1.67,0,0,0-.072.435,1.7,1.7,0,0,0,.419.976,1.513,1.513,0,0,1,.354.7,1.54,1.54,0,0,1-.267.836,2.2,2.2,0,0,0-.325.927,2.478,2.478,0,0,0,.014.33l.022.232a2.261,2.261,0,0,1-.2.8,15.355,15.355,0,0,1-.7,1.6.6.6,0,0,0-.31-.056.653.653,0,0,0-.447.253,5.374,5.374,0,0,0-.375-1.032c-.036-.077-.079-.155-.123-.232a1.7,1.7,0,0,1-.253-.744,1.827,1.827,0,0,1,.13-.52,1.469,1.469,0,0,0,.115-.864,1.383,1.383,0,0,0-.238-.457,1.145,1.145,0,0,1-.173-.316,1.308,1.308,0,0,1,.13-.766,3.228,3.228,0,0,0,.123-.372,2.433,2.433,0,0,0-.209-1.665,2.518,2.518,0,0,0,.541-1.349h0ZM175.479,44.5h0c-.079-.091-.173-.183-.253-.267a1.72,1.72,0,0,1-.447-.583,1.823,1.823,0,0,1-.087-.421,2.115,2.115,0,0,0-.029-.211,4.871,4.871,0,0,0-.44-1.25,3.7,3.7,0,0,1-.44-1.412,3.551,3.551,0,0,1,.195-1.1c.05-.169.094-.344.13-.52a4.663,4.663,0,0,0,.014-1.9,1.284,1.284,0,0,1,.065-.9c.007.007.014.014.022.014a5.663,5.663,0,0,1,1.335,1.271,2.163,2.163,0,0,1,.382,1.742c-.029.112-.072.218-.115.337a1.562,1.562,0,0,0-.137,1,1.442,1.442,0,0,0,.231.428,1.071,1.071,0,0,1,.18.33,1.188,1.188,0,0,1-.108.646,1.567,1.567,0,0,0,.152,1.573c.043.077.079.147.115.225a2.775,2.775,0,0,1,.339,1.917c-.014.042-.022.077-.036.112l-.022.063h0a2.324,2.324,0,0,1-.469.766c0-.007,0-.014-.007-.014-.029-.056-.058-.105-.087-.162a1.852,1.852,0,0,0-.5-1.693h.007Zm-1.032,9.187h0c-.065-.105-.137-.2-.209-.3a1.77,1.77,0,0,1-.346-.646,1.67,1.67,0,0,1-.014-.428c0-.07.007-.14.007-.218a4.873,4.873,0,0,0-.238-1.3,3.677,3.677,0,0,1-.2-1.461,3.749,3.749,0,0,1,.368-1.054c.072-.162.144-.323.217-.492a4.729,4.729,0,0,0,.325-1.868,1.248,1.248,0,0,1,.209-.871l.022.021a5.85,5.85,0,0,1,1.118,1.454A2.174,2.174,0,0,1,175.8,48.3c-.051.105-.108.211-.166.316a1.587,1.587,0,0,0-.3.976,1.494,1.494,0,0,0,.159.457,1.056,1.056,0,0,1,.123.358,1.238,1.238,0,0,1-.209.625,1.983,1.983,0,0,0-.245.611,1.96,1.96,0,0,0,.137.962c.029.077.051.155.079.232a3.017,3.017,0,0,1-.144,2.149,1.012,1.012,0,0,0-.079.105,2.408,2.408,0,0,1-.382.379,2.839,2.839,0,0,0-.31-1.777v-.007Zm1.883.9h0c.152.049.209.288.2.5-.007.105-.029.211-.043.323a2.224,2.224,0,0,0-.043.583,2.34,2.34,0,0,0,.1.457,1.3,1.3,0,0,1,.087.471.473.473,0,0,1-.043.147,1.556,1.556,0,0,1-.274.323,1.466,1.466,0,0,0-.3.33,1.622,1.622,0,0,0-.18,1.047,1.539,1.539,0,0,1-.087.78,1.611,1.611,0,0,1-.685.569,2.186,2.186,0,0,0-.779.618,2.948,2.948,0,0,0-.166.288c-.036.077-.072.14-.108.2a2.231,2.231,0,0,1-.613.569,10.325,10.325,0,0,1-2.179,1.334l-.036-.035a.632.632,0,0,0-.361-.119,3.179,3.179,0,0,0,.6-1.482c.014-.084.014-.169.029-.26a1.61,1.61,0,0,1,.195-.766,1.765,1.765,0,0,1,.39-.372,1.569,1.569,0,0,0,.577-.674,1.588,1.588,0,0,0,.051-.513,1.156,1.156,0,0,1,.022-.358,1.361,1.361,0,0,1,.534-.583c.1-.077.209-.162.31-.246a2.426,2.426,0,0,0,.736-1.517,2.7,2.7,0,0,0,1.2-.857c.014-.021.094-.112.108-.14.231-.3.52-.674.765-.6h.007Zm-6.494,7.269h0a2.755,2.755,0,0,0-.072-.351,1.791,1.791,0,0,1-.058-.723,2,2,0,0,1,.159-.4,1.666,1.666,0,0,0,.094-.2,4.765,4.765,0,0,0,.3-1.285,3.69,3.69,0,0,1,.4-1.419,4.139,4.139,0,0,1,.765-.829c.137-.119.267-.246.4-.372a4.775,4.775,0,0,0,1.046-1.594,1.331,1.331,0,0,1,.548-.723c0,.007.007.014.007.021a5.465,5.465,0,0,1,.44,1.77,2.177,2.177,0,0,1-.635,1.672c-.087.077-.18.147-.281.225a1.663,1.663,0,0,0-.671.78,1.636,1.636,0,0,0-.043.485,1.309,1.309,0,0,1-.029.379,1.281,1.281,0,0,1-.44.492,2.1,2.1,0,0,0-.476.464,1.949,1.949,0,0,0-.26.941c-.007.084-.014.169-.029.246a2.784,2.784,0,0,1-1.1,1.875c-.051.028-.1.063-.144.091s-.094.063-.137.091a2.814,2.814,0,0,1-.411.211,2.908,2.908,0,0,0,.606-1.833Zm-7.5,6.314h0a3.079,3.079,0,0,0,.058-.358,1.761,1.761,0,0,1,.195-.7,1.727,1.727,0,0,1,.289-.33c.05-.049.1-.105.152-.155a5.033,5.033,0,0,0,.722-1.117,3.674,3.674,0,0,1,.859-1.208,4.1,4.1,0,0,1,1-.534c.166-.07.332-.14.5-.225a4.98,4.98,0,0,0,1.537-1.173,1.325,1.325,0,0,1,.765-.506v.028a5.681,5.681,0,0,1-.188,1.805,2.234,2.234,0,0,1-1.162,1.377c-.108.042-.224.077-.346.119a1.608,1.608,0,0,0-.895.52,1.51,1.51,0,0,0-.2.442,1.091,1.091,0,0,1-.152.344,1.257,1.257,0,0,1-.584.323,2.167,2.167,0,0,0-.606.288,1.9,1.9,0,0,0-.563.808c-.036.077-.072.155-.108.225a3.824,3.824,0,0,1-1.869,1.243,2.074,2.074,0,0,0,.606-1.222v.007Zm1.631.155h0a2.461,2.461,0,0,0,.115-.239,1.706,1.706,0,0,1,.44-.66,2.152,2.152,0,0,1,.5-.232,1.545,1.545,0,0,0,.765-.45,1.477,1.477,0,0,0,.224-.471,1.28,1.28,0,0,1,.144-.33,1.338,1.338,0,0,1,.693-.379c.123-.042.253-.084.375-.14a2.488,2.488,0,0,0,1.205-1.194,2.788,2.788,0,0,0,1.421-.421c.043-.028.094-.063.144-.091s.094-.063.144-.091h0l.014-.014c.289-.183.6-.351.772-.225.13.091.1.337.014.534-.029.063-.058.126-.094.19a.9.9,0,0,0-.079.14h0a2.008,2.008,0,0,0-.216.492,2.037,2.037,0,0,0-.058.464,1.2,1.2,0,0,1-.079.471s-.072.112-.087.126a1.186,1.186,0,0,1-.361.218,1.964,1.964,0,0,0-.4.211,1.614,1.614,0,0,0-.52.927,1.447,1.447,0,0,1-.346.7,1.664,1.664,0,0,1-.844.316,2.3,2.3,0,0,0-.945.33,1.852,1.852,0,0,0-.253.218,1.714,1.714,0,0,1-.173.155,2.388,2.388,0,0,1-.772.344,15.823,15.823,0,0,1-4.373.73v-.028c.534-.176,2.172-.78,2.612-1.622h.007Zm-17.317-4.018h0a10.372,10.372,0,0,1,1.775,1.32,5.01,5.01,0,0,1,1.522,3.631,8.118,8.118,0,0,1-1.725-2.17,4.32,4.32,0,0,0-1.623-1.819,7.491,7.491,0,0,0-1.559-.555v-.007a6,6,0,0,1-.483-1.447,4.3,4.3,0,0,1-.036-.646,8.665,8.665,0,0,0,2.121,1.686h0Zm-2.035.723h0a8.039,8.039,0,0,1,1.8.6,4.016,4.016,0,0,1,1.458,1.665,7.821,7.821,0,0,0,2.576,2.831A11.561,11.561,0,0,1,144,67.636a8.876,8.876,0,0,1-2.46-4.067l.325.253c.043.028.079.056.108.077a5.02,5.02,0,0,0,1.328.73,13,13,0,0,0,1.328.393h0Zm-5.094-8.99h0a4.287,4.287,0,0,1,.2-.618,8.388,8.388,0,0,0,1.385,2.3,10.365,10.365,0,0,1,1.2,1.84,4.415,4.415,0,0,1-.065,3.961c-.043-.288-.079-.569-.123-.878a6.987,6.987,0,0,0-1.393-4.039,7.075,7.075,0,0,0-1.263-1.047h0a6.293,6.293,0,0,1,.058-1.524h0Zm-1.7.857h0a11.164,11.164,0,0,0,1.111.815,8.263,8.263,0,0,1,1.472,1.173,6.652,6.652,0,0,1,1.3,3.814c.022.176.043.351.072.534a1.791,1.791,0,0,1-.4-.421.226.226,0,0,0-.419.147c.043.2.087.4.144.6a8.924,8.924,0,0,1-3.665-3.6,8.8,8.8,0,0,1-.859-4.643c.065.119.137.232.216.351a1.027,1.027,0,0,1,.065.105,4.905,4.905,0,0,0,.981,1.138h0Zm-.657-9.215h0a4.829,4.829,0,0,1,.4-.513,8.406,8.406,0,0,0,.512,2.613,10.162,10.162,0,0,1,.5,2.121,4.443,4.443,0,0,1-1.364,3.659.015.015,0,0,0-.014-.014.392.392,0,0,1-.036-.056c.051-.26.115-.534.173-.794a6.766,6.766,0,0,0,.072-4.207,7.582,7.582,0,0,0-.83-1.4h0a6.022,6.022,0,0,1,.584-1.419h0Zm-1.126,1.384h0a7.651,7.651,0,0,1,.981,1.587,6.421,6.421,0,0,1-.094,3.961c-.029.119-.051.239-.079.358a1.416,1.416,0,0,1-.173-.435.228.228,0,0,0-.447,0,7.556,7.556,0,0,0-.094.8,8.937,8.937,0,0,1-2.287-4.65,8.656,8.656,0,0,1,.671-4.4h.007v-.007l.108-.253a3.473,3.473,0,0,0,.087.393.551.551,0,0,0,.029.126,4.909,4.909,0,0,0,.534,1.391,11.2,11.2,0,0,0,.765,1.131h0ZM137.712,38.8h0a4.787,4.787,0,0,1,.548-.365,8.29,8.29,0,0,0-.354,2.641,10.261,10.261,0,0,1-.216,2.17,4.914,4.914,0,0,1-2.533,3.2.933.933,0,0,0-.029-.119.176.176,0,0,0-.014-.049c.144-.246.3-.5.462-.759a6.843,6.843,0,0,0,1.458-3.975,6.786,6.786,0,0,0-.339-1.58h0a5.889,5.889,0,0,1,1.01-1.166h0Zm-1.1,2.774h0a6.53,6.53,0,0,1-1.4,3.73c-.072.112-.137.232-.209.344a1.152,1.152,0,0,1,0-.316.218.218,0,0,0-.144-.246.228.228,0,0,0-.274.105c-.108.19-.2.379-.3.576a9.313,9.313,0,0,1-.707-5.127,8.94,8.94,0,0,1,2.251-4.186c-.022.133-.036.267-.051.4-.007.049-.007.091-.014.126a4.667,4.667,0,0,0,.058,1.482,11.287,11.287,0,0,0,.361,1.306,7.7,7.7,0,0,1,.418,1.805h0ZM140.13,30.25h0a4.552,4.552,0,0,1,.606-.253,8.46,8.46,0,0,0-.895,2.514,10.071,10.071,0,0,1-.657,2.086,4.63,4.63,0,0,1-2.994,2.5v-.056c0-.014.007-.028.007-.049.18-.2.375-.407.563-.611a6.742,6.742,0,0,0,2.143-3.575,7.112,7.112,0,0,0,0-1.615v-.007a6.217,6.217,0,0,1,1.227-.941h0Zm4.741-6.679h0a3.949,3.949,0,0,1,.592-.014,8.24,8.24,0,0,0-1.667,1.875,9.961,9.961,0,0,1-1.335,1.594,4.478,4.478,0,0,1-3.442,1.159c.007-.028.022-.063.029-.1.007-.007.007-.021.014-.028.224-.105.447-.218.664-.316a6.421,6.421,0,0,0,3.153-2.36,6.648,6.648,0,0,0,.584-1.412,6.083,6.083,0,0,1,1.414-.4Zm-.476-2.521h0c-.029.035-.058.063-.079.091a4.377,4.377,0,0,0-.75,1.194,10.9,10.9,0,0,0-.418,1.208,7.32,7.32,0,0,1-.635,1.629,6.066,6.066,0,0,1-2.973,2.2c-.094.042-.188.084-.274.133a1.47,1.47,0,0,1,.188-.337.209.209,0,0,0,0-.281.228.228,0,0,0-.289-.049c-.209.126-.411.26-.613.4a8.4,8.4,0,0,1,2.1-4.32,8.806,8.806,0,0,1,3.976-2.135c-.079.084-.152.176-.231.26h0Zm-5.859,1.679h0c.216-.211.455-.4.693-.6a8.583,8.583,0,0,0,.722-.625,4.817,4.817,0,0,0,1.248-2.093.838.838,0,0,1,.079.119,3.01,3.01,0,0,1-.014,2.325,7.4,7.4,0,0,0-.916.759,9.014,9.014,0,0,0-2.287,4.98c-.108.084-.216.169-.318.26-.6-1.587-.447-3.933.786-5.141h.007Zm.238,4.86h0c-.043.126-.087.253-.13.386a1.119,1.119,0,0,1-.043.119,4.9,4.9,0,0,0-.245,1.468c-.007.457.043.906.079,1.349a7.958,7.958,0,0,1,.043,1.847,6.317,6.317,0,0,1-2.035,3.357c-.051.049-.094.105-.144.155a1.161,1.161,0,0,1,.115-.337.211.211,0,0,0-.058-.274.224.224,0,0,0-.289.014,8.64,8.64,0,0,0-.758.773,8.843,8.843,0,0,1,.4-5.19,9.136,9.136,0,0,1,3.067-3.659h0Zm-5.217,4.284h0a9.448,9.448,0,0,1,.433-.85,9.47,9.47,0,0,0,.455-.892,5.011,5.011,0,0,0,.375-2.557c.058.042.108.077.144.105a3.3,3.3,0,0,1,.938,2.311,8.183,8.183,0,0,0-.592,1.1,9.291,9.291,0,0,0-.354,5.752l-.238.316a5.113,5.113,0,0,1-1.169-5.282h0Zm-1.948,9.812h0c.065-.309.159-.618.253-.92s.195-.639.267-.962a5.05,5.05,0,0,0-.166-2.578c.065.028.123.049.166.07a3.291,3.291,0,0,1,1.393,2.079,8.269,8.269,0,0,0-.346,1.194,9.848,9.848,0,0,0,.888,5.724c-.058.14-.108.288-.166.442a5.374,5.374,0,0,1-2.287-5.05Zm.693,10.592h0a8.357,8.357,0,0,1-.051-.948,7.881,7.881,0,0,0-.065-1,5.03,5.03,0,0,0-.989-2.4c.072.007.137.014.18.021a3.43,3.43,0,0,1,2,1.545,7.856,7.856,0,0,0,.051,1.243,9.412,9.412,0,0,0,2.677,5.176v.386a5.5,5.5,0,0,1-3.81-4.032h0Zm4.207,9.678h0a9.524,9.524,0,0,1-.382-.878c-.123-.3-.245-.618-.4-.92a5.322,5.322,0,0,0-1.753-1.939,1.23,1.23,0,0,1,.173-.042,3.474,3.474,0,0,1,2.417.808,8.257,8.257,0,0,0,.476,1.152,9.36,9.36,0,0,0,4.207,3.968,4.059,4.059,0,0,0,.152.414,5.4,5.4,0,0,1-4.892-2.571h0Zm7.338,7.866h0a8.878,8.878,0,0,1-.671-.7,9.584,9.584,0,0,0-.707-.723,5.363,5.363,0,0,0-2.338-1.222,1.1,1.1,0,0,1,.152-.1,3.533,3.533,0,0,1,2.554-.063,7.612,7.612,0,0,0,.859.92,12.356,12.356,0,0,0,7.338,2.655.88.88,0,0,0,.267.105,7.47,7.47,0,0,1,.967.267c-5.4,1.082-7.078.077-8.428-1.145v-.007Zm7.721,5.338h0a.032.032,0,0,1-.022.042c-1.3.92-3.94.611-4.863.464l.628-.688a.16.16,0,0,0,.043-.155.213.213,0,0,0-.1-.133l-.931-.435a6.269,6.269,0,0,0,3.406-.288,4.947,4.947,0,0,0,.786.639v.028h.043a4.893,4.893,0,0,0,.967.478.076.076,0,0,1,.043.042h0Zm-.3-.885h-.6a4.007,4.007,0,0,1-.75-.632c-.267-.295-.332-.52-.281-.618s.238-.155.635-.091a6.106,6.106,0,0,0,3.9-.379l.426.541c-.4.534-1.313,1.271-3.334,1.187h0Zm5.166-1.124h0l-.447-.119-.447.119a.492.492,0,0,1-.5-.105l-.916-1.159c-.036-.042.007-.155.108-.288a1.289,1.289,0,0,1,.447-.372,2.568,2.568,0,0,1,1.068-.33h.419a2.571,2.571,0,0,1,1.126.323,1.359,1.359,0,0,1,.447.372c.094.133.137.246.1.288l-.916,1.159a.494.494,0,0,1-.491.105Zm-.281-2.613h-.339a2.1,2.1,0,0,0-.8.147c-.267-.337-.556-.66-.866-.99a3.47,3.47,0,0,1,3.687.007,10.952,10.952,0,0,0-.866.99,2.245,2.245,0,0,0-.8-.147h0Zm5.3,4.081h0a4.623,4.623,0,0,0,.786-.639,6.338,6.338,0,0,0,3.406.288l-.931.435a.19.19,0,0,0-.108.126.188.188,0,0,0,.043.162l.628.688c-.924.147-3.564.457-4.863-.464a.052.052,0,0,1-.022-.049c0-.014.007-.035.043-.049a4.7,4.7,0,0,0,.967-.471l.043-.028h0Zm.238-1.686h0c.39-.063.584.007.635.091s-.014.323-.281.625a4.749,4.749,0,0,1-.75.632h-.606c-2.006.091-2.93-.653-3.319-1.187l.426-.541a6.121,6.121,0,0,0,3.911.379h0ZM158.111,71.5h0a.909.909,0,0,0-.072-.105,1.59,1.59,0,0,0-.577-.478c-.043-.028-.1-.049-.152-.077a15.1,15.1,0,0,1,2.468-2.4.184.184,0,0,0,.029-.26.2.2,0,0,0-.267-.028,17.131,17.131,0,0,0-1.458,1.271,3.8,3.8,0,0,0-4.2,0,15.979,15.979,0,0,0-1.458-1.271.2.2,0,0,0-.267.028.184.184,0,0,0,.029.26,15.1,15.1,0,0,1,2.468,2.4c-.051.028-.108.049-.152.077a1.715,1.715,0,0,0-.57.478c-.029.042-.051.077-.072.105a4.976,4.976,0,0,0-2.475-1.152.468.468,0,0,1-.375-.457V68.282a.477.477,0,0,1,.483-.471h1.833a4.769,4.769,0,0,0,1.227-.133,5.279,5.279,0,0,0,.664-.183,2.232,2.232,0,0,1,.787-.147,2.093,2.093,0,0,1,.772.147,5.651,5.651,0,0,0,.664.183,4.769,4.769,0,0,0,1.227.133H160.5a.477.477,0,0,1,.483.471v1.608a.469.469,0,0,1-.382.457,4.976,4.976,0,0,0-2.475,1.152h0Zm13.017-5.127h0a3.76,3.76,0,0,0,.4.1,3.162,3.162,0,0,1,.462.119.29.29,0,0,1,.108.063c.029.042-.014.183-.137.281a1.7,1.7,0,0,1-.354.2,1.89,1.89,0,0,0-.209.1,2,2,0,0,0-1,1.215,1.855,1.855,0,0,0-.058.288.729.729,0,0,1-.75.787,12,12,0,0,1-1.328.155,1.37,1.37,0,0,0-.642.155,1.391,1.391,0,0,0-.325.323,1.354,1.354,0,0,1-.13.155,1.891,1.891,0,0,1-1.306.351A5.8,5.8,0,0,1,164.7,70.6c-.108-.021-.209-.049-.317-.077a3.537,3.537,0,0,0-.628-.119,2.463,2.463,0,0,0-1.284.239,1.393,1.393,0,0,1-.209.126,4.4,4.4,0,0,1-2.821.309,7.021,7.021,0,0,1,1.219-.365.869.869,0,0,0,.527-.344,4.245,4.245,0,0,0,.455.028,17.7,17.7,0,0,0,4.192-.766,2.672,2.672,0,0,0,.9-.414,1.255,1.255,0,0,0,.2-.183,1.623,1.623,0,0,1,.209-.183,1.852,1.852,0,0,1,.786-.26,1.949,1.949,0,0,0,1.039-.414,1.816,1.816,0,0,0,.455-.878,1.334,1.334,0,0,1,.382-.73,2.082,2.082,0,0,1,.31-.169,1.39,1.39,0,0,0,.476-.288,1.288,1.288,0,0,0,.52.274h0Zm6.386-9.039h0c.137-.007.274-.021.411-.035a2.877,2.877,0,0,1,.476-.035.253.253,0,0,1,.123.021c.05.028.05.183-.029.309a1.713,1.713,0,0,1-.267.3l-.166.162a1.97,1.97,0,0,0-.534,1.475,1.852,1.852,0,0,0,.043.288.94.94,0,0,1-.036.667,1.083,1.083,0,0,1-.4.323,12.385,12.385,0,0,1-1.2.569,1.28,1.28,0,0,0-.556.351,1.528,1.528,0,0,0-.2.407c-.022.063-.043.126-.065.183a1.858,1.858,0,0,1-1.111.752,5.82,5.82,0,0,1-1.111.309c-.108.014-.216.021-.332.028a3.39,3.39,0,0,0-.628.091,3.074,3.074,0,0,0-.512.2.836.836,0,0,0-.014-.232,10.776,10.776,0,0,0,2.222-1.363,2.7,2.7,0,0,0,.714-.681,1.54,1.54,0,0,0,.13-.239,1.9,1.9,0,0,1,.137-.239,1.974,1.974,0,0,1,.657-.5,1.909,1.909,0,0,0,.844-.73,1.832,1.832,0,0,0,.13-.976,1.318,1.318,0,0,1,.115-.815,1.558,1.558,0,0,1,.238-.26,1.477,1.477,0,0,0,.354-.428,1.484,1.484,0,0,0,.577.091h.007Zm1.32-9.756h0a1.287,1.287,0,0,1,.115-.33,1.4,1.4,0,0,0,.152-.534,1.472,1.472,0,0,0,.57-.133c.123-.056.245-.126.361-.19a2.991,2.991,0,0,1,.426-.211.314.314,0,0,1,.123-.028c.058.007.123.14.1.295a1.4,1.4,0,0,1-.123.386l-.087.211a1.952,1.952,0,0,0,.108,1.559l.152.253a.961.961,0,0,1,.238.625,1.031,1.031,0,0,1-.245.45,12.54,12.54,0,0,1-.873.976,1.258,1.258,0,0,0-.368.534,1.192,1.192,0,0,0-.014.45.916.916,0,0,1,.007.2,1.776,1.776,0,0,1-.722,1.117,6.1,6.1,0,0,1-.895.716,2.876,2.876,0,0,1-.3.155,3.326,3.326,0,0,0-.541.323,2.3,2.3,0,0,0-.209.183.629.629,0,0,0-.123-.183,12.071,12.071,0,0,0,1.335-1.931,2.539,2.539,0,0,0,.375-.9c.014-.091.022-.183.029-.267a1.6,1.6,0,0,1,.029-.274,1.736,1.736,0,0,1,.4-.709,1.462,1.462,0,0,0,.209-1.946,1.349,1.349,0,0,1-.224-.794V47.57Zm-.137-.885h0a1.016,1.016,0,0,1-.123.4,2.351,2.351,0,0,0-.144.414,1.622,1.622,0,0,0,.253,1.025,1.505,1.505,0,0,1,.238.744,1.619,1.619,0,0,1-.4.787,2.161,2.161,0,0,0-.469.864,2.564,2.564,0,0,0-.036.33c-.007.077-.007.155-.022.232a2.163,2.163,0,0,1-.332.759,10.942,10.942,0,0,1-1.349,1.939.72.72,0,0,0-.491.126,3.631,3.631,0,0,0-.1-1.587c-.029-.077-.051-.169-.079-.246a1.6,1.6,0,0,1-.13-.78,1.676,1.676,0,0,1,.209-.492,1.169,1.169,0,0,0,.094-1.327,1.126,1.126,0,0,1-.123-.337,1.3,1.3,0,0,1,.253-.737,3.134,3.134,0,0,0,.18-.344,2.424,2.424,0,0,0,.065-1.679,2.55,2.55,0,0,0,.714-1.117,1.372,1.372,0,0,0,.065-.246.128.128,0,0,1,.014-.049c.094-.365.209-.829.469-.857.159-.014.31.183.382.379.036.1.065.2.094.309a2.265,2.265,0,0,0,.195.548,2.489,2.489,0,0,0,.281.379.921.921,0,0,1,.3.555h0Zm1.66-5.78h0a1.158,1.158,0,0,0-.274.59,1.437,1.437,0,0,0,.05.442,1.915,1.915,0,0,1,.043.2,1.716,1.716,0,0,1-.534,1.208,5.746,5.746,0,0,1-.765.836c-.087.07-.173.133-.267.2a3.577,3.577,0,0,0-.419.33,1.023,1.023,0,0,0-.159-.274,15.457,15.457,0,0,0,.765-1.714,2.627,2.627,0,0,0,.231-.948c0-.091-.014-.183-.022-.267a1.2,1.2,0,0,1-.014-.274,1.839,1.839,0,0,1,.281-.766,1.81,1.81,0,0,0,.31-1.054,1.847,1.847,0,0,0-.426-.892,1.351,1.351,0,0,1-.346-.752,1.2,1.2,0,0,1,.065-.337,1.47,1.47,0,0,0,.065-.541,1.328,1.328,0,0,0,.541-.232,3.865,3.865,0,0,0,.325-.246,2.635,2.635,0,0,1,.39-.274.28.28,0,0,1,.115-.042h0c.058,0,.144.126.144.281a1.57,1.57,0,0,1-.058.393c-.014.07-.036.147-.051.218a1.969,1.969,0,0,0,.361,1.524,2.938,2.938,0,0,0,.195.225.957.957,0,0,1,.332.583.977.977,0,0,1-.166.478,11.089,11.089,0,0,1-.707,1.1h-.007Z" transform="translate(-130.593 -9.5)" fill="#373435"/>
    <path id="Path_10" data-name="Path 10" d="M152.315,19.633c-5.758,3.554-9.755,11.329-9.755,20.326,0,12.347,7.533,22.391,16.791,22.391s16.791-10.044,16.791-22.391c0-9-4-16.772-9.755-20.326l5.116-6.005a.226.226,0,0,0-.022-.316,17.968,17.968,0,0,0-5.419-3.245,20.622,20.622,0,0,0-2.121-.688c-4.012-1.068-4.337-3.371-4.344-3.463V5.9c0-.014-.007-.021-.007-.028s0-.014-.007-.014-.007-.014-.007-.021-.007-.014-.014-.021a.015.015,0,0,0-.014-.014l-.022-.021-.014-.014a.055.055,0,0,0-.029-.014l-.007-.007a.231.231,0,0,0-.137-.028.2.2,0,0,0-.173.112v.007c-.007.014-.014.021-.014.035s0,.007-.007.007,0,.021-.007.028v.014c-.014.1-.339,2.4-4.351,3.463a17.27,17.27,0,0,0-2.121.688,17.968,17.968,0,0,0-5.419,3.245.225.225,0,0,0-.022.316l5.116,6.005h.007Zm23.349,20.326h0c0,12.095-7.317,21.935-16.314,21.935s-16.314-9.84-16.314-21.935,7.317-21.928,16.314-21.928,16.314,9.84,16.314,21.928ZM152.82,10.488h0a18.2,18.2,0,0,1,2.071-.667c2.951-.787,4.048-2.233,4.459-3.118.4.885,1.508,2.325,4.459,3.118a18.387,18.387,0,0,1,7.179,3.68l-5.008,5.879v.007a13,13,0,0,0-13.262,0V19.38L147.712,13.5a17.733,17.733,0,0,1,5.109-3.013Z" transform="translate(-133.925 -5.717)" fill="#373435"/>
    <path id="Path_11" data-name="Path 11" d="M156.665,98.174a4.7,4.7,0,0,0,.967.471c.029.014.043.035.043.049a.039.039,0,0,1-.014.042c-1.3.92-3.94.611-4.863.464l.628-.688a.168.168,0,0,0,.043-.162.176.176,0,0,0-.108-.126l-.931-.435a6.269,6.269,0,0,0,3.406-.288,4.947,4.947,0,0,0,.786.639l.043.028h0Z" transform="translate(-136.673 -33.036)" fill="#fff688"/>
    <path id="Path_12" data-name="Path 12" d="M158.653,97.208h-.6a3.612,3.612,0,0,1-.75-.639c-.274-.295-.339-.52-.281-.618s.238-.155.635-.091a6.057,6.057,0,0,0,3.9-.379l.426.541c-.4.534-1.313,1.271-3.334,1.187Z" transform="translate(-137.947 -32.434)" fill="#fff688"/>
    <path id="Path_13" data-name="Path 13" d="M173,98.149a4.622,4.622,0,0,0,.786-.639,6.339,6.339,0,0,0,3.406.288l-.931.435a.182.182,0,0,0-.058.288l.628.688c-.924.147-3.564.457-4.863-.464-.007,0-.029-.014-.022-.049,0-.014.007-.035.043-.042a5.086,5.086,0,0,0,.967-.471l.043-.028h.007Z" transform="translate(-142.108 -33.039)" fill="#fff688"/>
    <path id="Path_14" data-name="Path 14" d="M172.079,95.859c.39-.063.585.007.635.091s-.014.323-.281.625a4.33,4.33,0,0,1-.75.632h-.606c-2.013.091-2.93-.653-3.326-1.187l.426-.541a6.1,6.1,0,0,0,3.9.379h0Z" transform="translate(-140.939 -32.434)" fill="#fff688"/>
    <path id="Path_15" data-name="Path 15" d="M166.037,92.21a.917.917,0,0,0-.072-.105,1.663,1.663,0,0,0-.577-.478c-.051-.028-.1-.049-.152-.077a15.105,15.105,0,0,1,2.468-2.4.184.184,0,0,0,.029-.26.188.188,0,0,0-.26-.028,16.129,16.129,0,0,0-1.458,1.278,2.854,2.854,0,0,0-2.107-.639,2.814,2.814,0,0,0-2.1.639,17.186,17.186,0,0,0-1.458-1.278.2.2,0,0,0-.267.028.184.184,0,0,0,.029.26,15.1,15.1,0,0,1,2.468,2.4c-.051.028-.108.049-.152.077a1.715,1.715,0,0,0-.57.478c-.029.042-.051.07-.072.105a4.976,4.976,0,0,0-2.475-1.152.475.475,0,0,1-.382-.457V88.993a.477.477,0,0,1,.483-.471h1.833a4.769,4.769,0,0,0,1.227-.133,5.279,5.279,0,0,0,.664-.183,2.263,2.263,0,0,1,.786-.147,2.093,2.093,0,0,1,.772.147c.188.056.4.126.664.183a4.827,4.827,0,0,0,1.227.133h1.833a.477.477,0,0,1,.483.471V90.6a.469.469,0,0,1-.382.457,4.976,4.976,0,0,0-2.475,1.152h.007Z" transform="translate(-138.483 -30.225)" fill="#fff688"/>
    <path id="Path_16" data-name="Path 16" d="M192.927,30.737c.072-.105.137-.218.2-.33a2.889,2.889,0,0,1,.245-.379.305.305,0,0,1,.1-.091c.072-.035.195.042.253.147a1.113,1.113,0,0,1,.094.33,1.923,1.923,0,0,0,.043.2,1.736,1.736,0,0,0,1.183,1.18c.224.077.44.155.52.316a.731.731,0,0,1,.029.435,9.414,9.414,0,0,1-.209,1.166,1.043,1.043,0,0,0-.022.6,1.081,1.081,0,0,0,.231.344,1.445,1.445,0,0,1,.108.133,1.411,1.411,0,0,1-.014,1.159,4.634,4.634,0,0,1-.375.983c-.051.091-.108.176-.166.267a2.708,2.708,0,0,0-.281.513,2.318,2.318,0,0,0-.13.457.926.926,0,0,0-.195-.112,9.025,9.025,0,0,0,.115-2.219,2.142,2.142,0,0,0-.159-.857c-.036-.077-.087-.14-.123-.211s-.087-.133-.123-.2a1.528,1.528,0,0,1-.043-.709,1.459,1.459,0,0,0-.13-.983,1.655,1.655,0,0,0-.736-.548,1.2,1.2,0,0,1-.6-.442.893.893,0,0,1-.072-.288,1.4,1.4,0,0,0-.144-.457,1.757,1.757,0,0,0,.4-.393h-.007Z" transform="translate(-147.839 -12.923)" fill="#faa838"/>
    <path id="Path_17" data-name="Path 17" d="M185.316,19.8a3.6,3.6,0,0,0,.144-.351,2.137,2.137,0,0,1,.188-.407.257.257,0,0,1,.087-.105c.065-.042.2.014.267.105a1.067,1.067,0,0,1,.144.316c.022.063.043.126.072.19a1.654,1.654,0,0,0,1.082.934c.094.028.18.042.274.063a.9.9,0,0,1,.563.239.73.73,0,0,1,.094.428,10.781,10.781,0,0,1-.029,1.18,1.126,1.126,0,0,0,.065.59,1.079,1.079,0,0,0,.281.309c.043.042.094.077.13.119a1.4,1.4,0,0,1,.159,1.145,4.479,4.479,0,0,1-.216,1.025c-.036.1-.079.2-.123.288a2.771,2.771,0,0,0-.2.548,1.685,1.685,0,0,0-.043.323.756.756,0,0,0-.216-.021,9.01,9.01,0,0,0-.231-2.128,2.075,2.075,0,0,0-.289-.829,2.26,2.26,0,0,0-.159-.19,1.692,1.692,0,0,1-.152-.183,1.417,1.417,0,0,1-.144-.7,1.478,1.478,0,0,0-.281-.955,1.66,1.66,0,0,0-.815-.428,1.172,1.172,0,0,1-.657-.351,1.656,1.656,0,0,1-.123-.274,1.147,1.147,0,0,0-.216-.428,1.386,1.386,0,0,0,.332-.45l.007-.007Z" transform="translate(-145.734 -9.647)" fill="#faa838"/>
    <path id="Path_18" data-name="Path 18" d="M184.165,29a2.966,2.966,0,0,0-.346-.056,1.736,1.736,0,0,1-.664-.183,1.6,1.6,0,0,1-.281-.26c-.043-.049-.087-.091-.13-.14a4.34,4.34,0,0,0-1.01-.674,2.978,2.978,0,0,1-1.068-.794,2.923,2.923,0,0,1-.39-.9c-.043-.147-.094-.3-.152-.45a3.77,3.77,0,0,0-.952-1.4.939.939,0,0,1-.382-.681h.051a5.9,5.9,0,0,1,1.761.211,1.785,1.785,0,0,1,1.183,1.054c.029.091.051.2.072.3a1.283,1.283,0,0,0,.4.829,1.568,1.568,0,0,0,.411.2,1.01,1.01,0,0,1,.318.147.9.9,0,0,1,.224.513,1.777,1.777,0,0,0,.2.555,1.727,1.727,0,0,0,.729.534c.065.035.137.063.2.105a2.66,2.66,0,0,1,1.407,1.3h0c.029.1.065.19.094.274a.738.738,0,0,0,.051.133.254.254,0,0,1,.014.063,5.479,5.479,0,0,0-1.761-.66v-.007Z" transform="translate(-144.013 -10.998)" fill="#faa838"/>
    <path id="Path_19" data-name="Path 19" d="M190.476,39.6a3.017,3.017,0,0,0-.332-.105,1.648,1.648,0,0,1-.628-.281,1.72,1.72,0,0,1-.238-.3c-.036-.049-.072-.105-.108-.155a4.622,4.622,0,0,0-.888-.822,3.075,3.075,0,0,1-.938-.934,3.24,3.24,0,0,1-.253-.941c-.022-.155-.043-.309-.079-.471a3.835,3.835,0,0,0-.722-1.524.979.979,0,0,1-.274-.73h.05a5.918,5.918,0,0,1,1.71.464,1.755,1.755,0,0,1,1,1.208c.014.1.022.2.029.309a1.035,1.035,0,0,0,.657,1.131,1,1,0,0,1,.289.183.879.879,0,0,1,.144.541,1.646,1.646,0,0,0,.115.583,1.712,1.712,0,0,0,.642.632,1.785,1.785,0,0,1,.188.133,2.088,2.088,0,0,1,.888,1.636c-.007.049-.007.091-.014.133a.531.531,0,0,1-.014.112,2.689,2.689,0,0,0-1.219-.808h0Z" transform="translate(-146.023 -13.936)" fill="#faa838"/>
    <path id="Path_20" data-name="Path 20" d="M192.155,51.915c-.079-.091-.173-.183-.253-.267a1.72,1.72,0,0,1-.447-.583,1.823,1.823,0,0,1-.087-.421c-.007-.07-.022-.14-.029-.211a4.873,4.873,0,0,0-.44-1.25,2.737,2.737,0,0,1-.245-2.507c.043-.169.094-.344.13-.52a4.663,4.663,0,0,0,.014-1.9,1.279,1.279,0,0,1,.065-.9c.007.007.014.007.022.014a5.634,5.634,0,0,1,1.335,1.264,2.168,2.168,0,0,1,.382,1.742c-.029.112-.072.218-.115.337a1.562,1.562,0,0,0-.137,1,1.442,1.442,0,0,0,.231.428,1.07,1.07,0,0,1,.18.33,1.178,1.178,0,0,1-.1.646,2.128,2.128,0,0,0-.152.639,1.988,1.988,0,0,0,.3.934c.043.077.079.147.115.225a2.774,2.774,0,0,1,.339,1.917.515.515,0,0,1-.036.112l-.022.063h0a2.193,2.193,0,0,1-.462.766.024.024,0,0,0-.007-.014c-.029-.056-.05-.105-.079-.162a1.876,1.876,0,0,0-.5-1.693h.007Z" transform="translate(-147.262 -16.921)" fill="#faa838"/>
    <path id="Path_21" data-name="Path 21" d="M190.994,64.968c-.065-.105-.137-.2-.209-.3a1.692,1.692,0,0,1-.346-.639,1.672,1.672,0,0,1-.014-.428v-.211a4.823,4.823,0,0,0-.238-1.3,3.66,3.66,0,0,1-.2-1.454,3.905,3.905,0,0,1,.368-1.054c.072-.162.152-.323.216-.492a4.6,4.6,0,0,0,.317-1.868,1.236,1.236,0,0,1,.216-.871c.007,0,.014.014.014.021a5.849,5.849,0,0,1,1.118,1.454,2.146,2.146,0,0,1,.094,1.777c-.051.105-.108.2-.166.316a1.581,1.581,0,0,0-.3.969,1.538,1.538,0,0,0,.159.464,1.008,1.008,0,0,1,.123.358,1.215,1.215,0,0,1-.209.618,2.2,2.2,0,0,0-.253.611,1.884,1.884,0,0,0,.144.962c.029.077.05.162.079.232a3.017,3.017,0,0,1-.144,2.149,1,1,0,0,0-.079.105,2.407,2.407,0,0,1-.382.379,2.861,2.861,0,0,0-.31-1.784h0Z" transform="translate(-147.125 -20.788)" fill="#faa838"/>
    <path id="Path_22" data-name="Path 22" d="M184.772,76.9c-.014-.119-.043-.239-.065-.351a1.671,1.671,0,0,1-.058-.723,2,2,0,0,1,.159-.4c.029-.063.065-.133.094-.2a5.068,5.068,0,0,0,.31-1.285,3.69,3.69,0,0,1,.4-1.419,3.624,3.624,0,0,1,.765-.829c.137-.119.267-.239.4-.372a4.836,4.836,0,0,0,1.053-1.594,1.331,1.331,0,0,1,.548-.723c.007.007.007.014.014.021a5.657,5.657,0,0,1,.44,1.77,2.167,2.167,0,0,1-.635,1.672c-.087.077-.18.147-.281.225a1.663,1.663,0,0,0-.671.78,1.635,1.635,0,0,0-.043.485,1.309,1.309,0,0,1-.029.379,1.281,1.281,0,0,1-.44.492,2.1,2.1,0,0,0-.476.464,1.949,1.949,0,0,0-.26.941c-.007.084-.014.169-.029.246a2.8,2.8,0,0,1-1.1,1.882c-.05.028-.1.063-.144.091s-.094.063-.137.091a2.227,2.227,0,0,1-.411.2,2.952,2.952,0,0,0,.606-1.833v-.007Z" transform="translate(-145.514 -24.556)" fill="#faa838"/>
    <path id="Path_23" data-name="Path 23" d="M174.382,86.573a3.088,3.088,0,0,0,.058-.358,1.728,1.728,0,0,1,.195-.7,1.7,1.7,0,0,1,.289-.323c.051-.049.1-.105.152-.155a5.033,5.033,0,0,0,.722-1.117,3.675,3.675,0,0,1,.859-1.208,4.366,4.366,0,0,1,1-.541c.166-.07.332-.14.5-.218a5.068,5.068,0,0,0,1.537-1.166,1.325,1.325,0,0,1,.765-.506v.028a5.48,5.48,0,0,1-.188,1.805,2.2,2.2,0,0,1-1.162,1.37c-.108.049-.216.084-.339.126a1.649,1.649,0,0,0-.895.52,1.51,1.51,0,0,0-.2.442,1.168,1.168,0,0,1-.152.344,1.257,1.257,0,0,1-.584.323,2.168,2.168,0,0,0-.606.288,1.948,1.948,0,0,0-.563.808c-.036.077-.072.155-.108.225a3.877,3.877,0,0,1-1.869,1.25,2.074,2.074,0,0,0,.606-1.222h-.007Z" transform="translate(-142.621 -27.91)" fill="#faa838"/>
    <path id="Path_24" data-name="Path 24" d="M152.051,83.029a10.051,10.051,0,0,1,1.775,1.327,5.076,5.076,0,0,1,1.53,3.631,7.977,7.977,0,0,1-1.724-2.17A4.273,4.273,0,0,0,152.008,84a7.49,7.49,0,0,0-1.559-.555h0A6,6,0,0,1,149.966,82a4.3,4.3,0,0,1-.036-.646,8.665,8.665,0,0,0,2.121,1.686h0Z" transform="translate(-135.977 -28.229)" fill="#faa838"/>
    <path id="Path_25" data-name="Path 25" d="M142.961,71.718a4.291,4.291,0,0,1,.2-.618,8.387,8.387,0,0,0,1.385,2.3,10.422,10.422,0,0,1,1.2,1.847,4.392,4.392,0,0,1-.065,3.961c-.043-.288-.079-.569-.123-.878a7.021,7.021,0,0,0-1.393-4.039,7.386,7.386,0,0,0-1.263-1.047h0a5.949,5.949,0,0,1,.065-1.524h0Z" transform="translate(-134.016 -25.178)" fill="#faa838"/>
    <path id="Path_26" data-name="Path 26" d="M139.514,59.853a4.827,4.827,0,0,1,.4-.513,8.406,8.406,0,0,0,.512,2.613,10.121,10.121,0,0,1,.5,2.128,4.443,4.443,0,0,1-1.364,3.659c-.007-.007-.007-.014-.014-.014a.392.392,0,0,1-.036-.056c.051-.26.108-.527.173-.794a6.744,6.744,0,0,0,.072-4.2,7.58,7.58,0,0,0-.83-1.4v-.007a5.972,5.972,0,0,1,.584-1.412v-.007Z" transform="translate(-132.914 -21.678)" fill="#faa838"/>
    <path id="Path_27" data-name="Path 27" d="M139.49,47.285a4.223,4.223,0,0,1,.548-.365,8.117,8.117,0,0,0-.354,2.641,10.26,10.26,0,0,1-.216,2.17,4.888,4.888,0,0,1-2.525,3.2.938.938,0,0,0-.029-.119.434.434,0,0,1-.014-.049c.144-.246.3-.5.462-.759a6.843,6.843,0,0,0,1.458-3.975,7.264,7.264,0,0,0-.339-1.58h0a5.889,5.889,0,0,1,1.01-1.166Z" transform="translate(-132.349 -17.981)" fill="#faa838"/>
    <path id="Path_28" data-name="Path 28" d="M142.32,35.153a4.552,4.552,0,0,1,.606-.253,8.461,8.461,0,0,0-.895,2.514,10.671,10.671,0,0,1-.657,2.086A4.65,4.65,0,0,1,138.38,42v-.049c0-.014.007-.028.007-.049.18-.211.375-.414.563-.611a6.787,6.787,0,0,0,2.143-3.575,6.72,6.72,0,0,0-.007-1.615h0a6.435,6.435,0,0,1,1.227-.941h0Z" transform="translate(-132.761 -14.403)" fill="#faa838"/>
    <path id="Path_29" data-name="Path 29" d="M148.159,25.742a3.921,3.921,0,0,1,.592-.014,8.446,8.446,0,0,0-1.674,1.875,9.959,9.959,0,0,1-1.335,1.594,4.477,4.477,0,0,1-3.442,1.159c.014-.028.022-.063.036-.1a.073.073,0,0,1,.014-.035c.216-.105.44-.211.664-.316a6.453,6.453,0,0,0,3.153-2.36,6.35,6.35,0,0,0,.577-1.4,6.083,6.083,0,0,1,1.414-.4Z" transform="translate(-133.853 -11.672)" fill="#faa838"/>
    <path id="Path_30" data-name="Path 30" d="M141.2,23.138a7.8,7.8,0,0,1,.693-.59c.238-.2.5-.4.722-.625a4.817,4.817,0,0,0,1.248-2.093.742.742,0,0,1,.072.119,3.012,3.012,0,0,1-.014,2.325,7.4,7.4,0,0,0-.916.759,9.063,9.063,0,0,0-2.287,4.98c-.108.084-.216.169-.317.26-.6-1.587-.44-3.933.786-5.141h0Z" transform="translate(-133.229 -9.918)" fill="#faa838"/>
    <path id="Path_31" data-name="Path 31" d="M134.623,35.735a8.777,8.777,0,0,1,.44-.857,9.482,9.482,0,0,0,.455-.892,5.089,5.089,0,0,0,.375-2.557c.058.042.108.077.144.105a3.278,3.278,0,0,1,.938,2.311,8.125,8.125,0,0,0-.584,1.1,9.294,9.294,0,0,0-.354,5.752c-.079.105-.166.211-.238.316a5.128,5.128,0,0,1-1.169-5.282h0Z" transform="translate(-131.63 -13.371)" fill="#faa838"/>
    <path id="Path_32" data-name="Path 32" d="M132.016,49.64c.065-.309.159-.618.253-.92s.2-.639.267-.962a4.973,4.973,0,0,0-.166-2.578,1.215,1.215,0,0,1,.166.077,3.335,3.335,0,0,1,1.4,2.079,7.656,7.656,0,0,0-.346,1.194,9.848,9.848,0,0,0,.887,5.724c-.058.147-.115.288-.166.435a5.359,5.359,0,0,1-2.287-5.05v-.007Z" transform="translate(-130.972 -17.463)" fill="#faa838"/>
    <path id="Path_33" data-name="Path 33" d="M132.574,64.771a8.358,8.358,0,0,1-.058-.948,9.456,9.456,0,0,0-.058-1,5.1,5.1,0,0,0-.989-2.4c.065.007.13.014.18.021a3.457,3.457,0,0,1,2,1.545,7.047,7.047,0,0,0,.058,1.243,9.365,9.365,0,0,0,2.677,5.176V68.8a5.485,5.485,0,0,1-3.81-4.032h0Z" transform="translate(-130.837 -22.002)" fill="#faa838"/>
    <path id="Path_34" data-name="Path 34" d="M137.85,78.779a9.54,9.54,0,0,1-.382-.878c-.123-.3-.245-.618-.4-.92a5.266,5.266,0,0,0-1.753-1.939,1.227,1.227,0,0,1,.173-.042,3.507,3.507,0,0,1,2.417.808,9.239,9.239,0,0,0,.476,1.152,9.435,9.435,0,0,0,4.207,3.968c.051.14.1.274.152.414a5.4,5.4,0,0,1-4.892-2.571h0Z" transform="translate(-131.906 -26.332)" fill="#faa838"/>
    <path id="Path_35" data-name="Path 35" d="M147.569,90.31c-.238-.218-.455-.457-.671-.7a9.543,9.543,0,0,0-.7-.73,5.438,5.438,0,0,0-2.338-1.222,1.1,1.1,0,0,1,.152-.1,3.528,3.528,0,0,1,2.554-.056,7.608,7.608,0,0,0,.859.92,12.356,12.356,0,0,0,7.338,2.655.88.88,0,0,0,.267.105,7.174,7.174,0,0,1,.967.267c-5.4,1.082-7.078.077-8.428-1.145Z" transform="translate(-134.287 -29.997)" fill="#faa838"/>
    <path id="Path_36" data-name="Path 36" d="M165.557,95.374l-.447-.119-.447.119a.494.494,0,0,1-.491-.105l-.916-1.159c-.036-.042.007-.155.108-.288a1.289,1.289,0,0,1,.447-.372,2.6,2.6,0,0,1,1.075-.33h.419a2.482,2.482,0,0,1,1.126.33,1.289,1.289,0,0,1,.447.372c.1.126.137.239.108.288l-.916,1.159a.494.494,0,0,1-.491.105h0Z" transform="translate(-139.684 -31.731)" fill="#fff688"/>
    <path id="Path_37" data-name="Path 37" d="M182.307,86.567c.137.042.267.07.4.1a2.942,2.942,0,0,1,.462.119.4.4,0,0,1,.108.056c.036.042-.014.19-.13.288a1.347,1.347,0,0,1-.361.2c-.065.035-.137.063-.209.1a2.021,2.021,0,0,0-1,1.222,1.86,1.86,0,0,0-.058.288,1,1,0,0,1-.26.618.992.992,0,0,1-.491.169,12.077,12.077,0,0,1-1.32.155,1.35,1.35,0,0,0-.642.155,1.265,1.265,0,0,0-.325.323c-.043.056-.087.105-.13.155a1.882,1.882,0,0,1-1.3.351A5.7,5.7,0,0,1,175.9,90.8c-.108-.021-.216-.049-.325-.077a3.583,3.583,0,0,0-.621-.119,2.4,2.4,0,0,0-1.284.246,1.393,1.393,0,0,1-.209.126,4.4,4.4,0,0,1-2.821.309,7.48,7.48,0,0,1,1.219-.365.859.859,0,0,0,.527-.351,4.37,4.37,0,0,0,.455.028,17.724,17.724,0,0,0,4.192-.759,2.672,2.672,0,0,0,.9-.414c.072-.063.144-.126.2-.183a2.433,2.433,0,0,1,.209-.183,1.852,1.852,0,0,1,.786-.26,1.9,1.9,0,0,0,1.039-.421,1.815,1.815,0,0,0,.455-.878,1.334,1.334,0,0,1,.382-.73,2.083,2.083,0,0,1,.31-.169,1.618,1.618,0,0,0,.476-.295,1.288,1.288,0,0,0,.52.274v.007Z" transform="translate(-141.744 -29.702)" fill="#faa838"/>
    <path id="Path_38" data-name="Path 38" d="M193.3,73.749a3.73,3.73,0,0,0,.411-.035,3.824,3.824,0,0,1,.483-.035.281.281,0,0,1,.123.028c.043.028.051.176-.029.309a1.3,1.3,0,0,1-.267.3,1.7,1.7,0,0,0-.159.162,1.965,1.965,0,0,0-.534,1.468c.007.1.022.2.036.288a.94.94,0,0,1-.036.667,1.068,1.068,0,0,1-.4.316,11.742,11.742,0,0,1-1.205.569,1.28,1.28,0,0,0-.556.351,1.309,1.309,0,0,0-.2.4c-.022.063-.043.133-.065.19a1.82,1.82,0,0,1-1.111.745,5.474,5.474,0,0,1-1.111.309c-.108.014-.216.021-.332.028a2.887,2.887,0,0,0-.628.091,3.073,3.073,0,0,0-.512.2.837.837,0,0,0-.014-.232,10.588,10.588,0,0,0,2.222-1.363,2.7,2.7,0,0,0,.714-.681,1.538,1.538,0,0,0,.13-.239,1.905,1.905,0,0,1,.137-.239,1.99,1.99,0,0,1,.657-.506,1.909,1.909,0,0,0,.844-.73,1.833,1.833,0,0,0,.13-.976,1.318,1.318,0,0,1,.115-.815,1.558,1.558,0,0,1,.238-.26,1.477,1.477,0,0,0,.354-.428,1.5,1.5,0,0,0,.584.091v-.007Z" transform="translate(-146.352 -25.931)" fill="#faa838"/>
    <path id="Path_39" data-name="Path 39" d="M196.673,59.306a1.583,1.583,0,0,1,.115-.323,1.437,1.437,0,0,0,.152-.534,1.544,1.544,0,0,0,.577-.133c.123-.056.245-.126.361-.19a3.054,3.054,0,0,1,.426-.218.523.523,0,0,1,.123-.028c.051.007.123.147.1.3a1.363,1.363,0,0,1-.123.379c-.029.07-.058.14-.079.211a1.952,1.952,0,0,0,.1,1.559l.152.253a.707.707,0,0,1-.007,1.075c-.274.337-.563.667-.873.983a1.16,1.16,0,0,0-.368.534,1.365,1.365,0,0,0-.022.45,1.952,1.952,0,0,1,.014.2,1.776,1.776,0,0,1-.722,1.117,6.052,6.052,0,0,1-.895.709,2.872,2.872,0,0,1-.3.155,3.725,3.725,0,0,0-.548.323,2.3,2.3,0,0,0-.209.183.519.519,0,0,0-.123-.176,11.562,11.562,0,0,0,1.328-1.931,2.686,2.686,0,0,0,.382-.9,1.727,1.727,0,0,0,.022-.267,1.6,1.6,0,0,1,.029-.274,1.822,1.822,0,0,1,.4-.709,1.9,1.9,0,0,0,.483-.99,1.868,1.868,0,0,0-.274-.948,1.29,1.29,0,0,1-.216-.794v-.007Z" transform="translate(-148.396 -21.243)" fill="#faa838"/>
    <path id="Path_40" data-name="Path 40" d="M198.713,48.394a.958.958,0,0,0-.224,1.025c.014.07.036.133.043.2A1.716,1.716,0,0,1,198,50.824a5.461,5.461,0,0,1-.772.843,2.575,2.575,0,0,1-.267.2c-.137.105-.281.211-.411.33a1.022,1.022,0,0,0-.159-.274,15.456,15.456,0,0,0,.765-1.714,2.626,2.626,0,0,0,.231-.941c0-.091-.014-.183-.022-.274a1.183,1.183,0,0,1-.014-.274,1.839,1.839,0,0,1,.281-.766,1.459,1.459,0,0,0-.115-1.946,1.33,1.33,0,0,1-.346-.752,1.5,1.5,0,0,1,.058-.337,1.451,1.451,0,0,0,.065-.534,1.482,1.482,0,0,0,.541-.232,2.781,2.781,0,0,0,.325-.246,2.3,2.3,0,0,1,.39-.274.28.28,0,0,1,.115-.042h0c.051,0,.144.126.144.274a1.524,1.524,0,0,1-.058.393c-.014.077-.036.147-.051.218A1.969,1.969,0,0,0,199.06,46c.058.077.13.155.188.225a.971.971,0,0,1,.339.583,1.055,1.055,0,0,1-.166.478,11.1,11.1,0,0,1-.707,1.1h-.007Z" transform="translate(-148.914 -16.99)" fill="#faa838"/>
    <path id="Path_41" data-name="Path 41" d="M181.594,21.247a.8.8,0,0,1-.072-.133c-.2-.365-.346-.66-.188-.829.123-.126.368-.091.548-.014.087.042.173.091.267.14a1.678,1.678,0,0,0,.5.225,2.366,2.366,0,0,0,.447.063.835.835,0,0,1,.563.155.913.913,0,0,1,.159.323,1.6,1.6,0,0,0,.159.365,1.506,1.506,0,0,0,.859.5,1.343,1.343,0,0,1,.642.323,1.19,1.19,0,0,1,.188.737,1.733,1.733,0,0,0,.2.864,1.575,1.575,0,0,0,.188.232c.051.056.094.105.13.155a1.664,1.664,0,0,1,.231.688,8.442,8.442,0,0,1,.216,2.191h0a.7.7,0,0,0-.188.232,4.381,4.381,0,0,0-1.205-.871c-.072-.035-.144-.07-.224-.105a1.351,1.351,0,0,1-.577-.4,1.289,1.289,0,0,1-.152-.442,1.209,1.209,0,0,0-.346-.7,1.33,1.33,0,0,0-.44-.211,1.333,1.333,0,0,1-.3-.133.989.989,0,0,1-.267-.611,2.561,2.561,0,0,0-.079-.337,2.024,2.024,0,0,0-1.017-1.117,2.105,2.105,0,0,0-.238-1.271h.007Z" transform="translate(-144.702 -10.028)" fill="#fff688"/>
    <path id="Path_42" data-name="Path 42" d="M189.08,31.577a1.086,1.086,0,0,0-.051-.14c-.144-.393-.238-.7-.058-.85a.53.53,0,0,1,.548.063,2.585,2.585,0,0,1,.238.176,2.3,2.3,0,0,0,.455.3,2.445,2.445,0,0,0,.426.126.872.872,0,0,1,.534.239.78.78,0,0,1,.108.337,1.254,1.254,0,0,0,.108.379,1.439,1.439,0,0,0,.772.618,1.288,1.288,0,0,1,.584.407,1.19,1.19,0,0,1,.079.759,1.759,1.759,0,0,0,.065.885,1.309,1.309,0,0,0,.152.26,1.523,1.523,0,0,1,.1.176,1.657,1.657,0,0,1,.123.709,8.192,8.192,0,0,1-.115,2.17.056.056,0,0,0-.029.007.624.624,0,0,0-.39.3,2.53,2.53,0,0,0-.866-1.1c-.065-.049-.13-.091-.2-.14a1.321,1.321,0,0,1-.505-.485,1.434,1.434,0,0,1-.087-.457,1.225,1.225,0,0,0-.238-.752,1.243,1.243,0,0,0-.4-.274,1.184,1.184,0,0,1-.281-.176,1,1,0,0,1-.173-.646c-.007-.112-.014-.232-.029-.351a2.01,2.01,0,0,0-.83-1.25,2.136,2.136,0,0,0-.036-1.292h0Z" transform="translate(-146.82 -13.104)" fill="#fff688"/>
    <path id="Path_43" data-name="Path 43" d="M194.206,43.059a1.323,1.323,0,0,1,.014-.169c.036-.379.072-.85.317-.913.159-.042.339.133.44.316.014.035.036.063.051.1a.462.462,0,0,0,.065.147c.007.014.014.035.022.049a2.245,2.245,0,0,0,.281.513,2.432,2.432,0,0,0,.332.33.951.951,0,0,1,.382.5,1.082,1.082,0,0,1-.058.414,1.667,1.667,0,0,0-.072.428,1.7,1.7,0,0,0,.418.976,1.513,1.513,0,0,1,.354.7,1.54,1.54,0,0,1-.267.836,2.2,2.2,0,0,0-.325.927,2.381,2.381,0,0,0,.022.33c.007.077.014.155.014.232a2.26,2.26,0,0,1-.2.8,13.963,13.963,0,0,1-.7,1.6.62.62,0,0,0-.758.19,4.876,4.876,0,0,0-.375-1.025c-.036-.077-.079-.155-.123-.232a1.53,1.53,0,0,1-.253-.744,1.614,1.614,0,0,1,.13-.52,1.529,1.529,0,0,0,.115-.864,1.383,1.383,0,0,0-.238-.457,1.147,1.147,0,0,1-.173-.316,1.308,1.308,0,0,1,.13-.766,3.224,3.224,0,0,0,.123-.372,2.433,2.433,0,0,0-.209-1.665,2.518,2.518,0,0,0,.541-1.349l-.007.007Z" transform="translate(-148.137 -16.508)" fill="#fff688"/>
    <path id="Path_44" data-name="Path 44" d="M191.868,69.9c.159.049.209.288.2.5-.007.105-.029.211-.043.323a1.954,1.954,0,0,0-.043.583,2.343,2.343,0,0,0,.1.457,1.3,1.3,0,0,1,.087.471.474.474,0,0,1-.043.147,1.4,1.4,0,0,1-.274.323,1.663,1.663,0,0,0-.3.33,1.609,1.609,0,0,0-.18,1.039,1.539,1.539,0,0,1-.087.78,1.611,1.611,0,0,1-.685.569,2.246,2.246,0,0,0-.779.611,2.029,2.029,0,0,0-.166.295c-.036.07-.072.14-.108.2a2.232,2.232,0,0,1-.613.569,10.045,10.045,0,0,1-2.179,1.334l-.036-.035a.611.611,0,0,0-.354-.119,3.179,3.179,0,0,0,.6-1.482c.014-.084.022-.169.029-.26a1.554,1.554,0,0,1,.2-.766,1.965,1.965,0,0,1,.39-.379,1.527,1.527,0,0,0,.57-.667,1.624,1.624,0,0,0,.051-.513,1.157,1.157,0,0,1,.022-.358,1.317,1.317,0,0,1,.534-.583c.1-.077.209-.162.31-.246a2.427,2.427,0,0,0,.736-1.524,2.7,2.7,0,0,0,1.2-.857c.014-.021.094-.112.108-.14.231-.3.527-.674.765-.6h0Z" transform="translate(-146.124 -24.819)" fill="#fff688"/>
    <path id="Path_45" data-name="Path 45" d="M175.862,87.352a2.449,2.449,0,0,0,.115-.239,1.571,1.571,0,0,1,.447-.653,1.7,1.7,0,0,1,.5-.232,1.545,1.545,0,0,0,.765-.45,1.338,1.338,0,0,0,.224-.471.9.9,0,0,1,.837-.709c.123-.042.253-.077.375-.133a2.519,2.519,0,0,0,1.205-1.194,2.73,2.73,0,0,0,1.421-.428c.043-.028.094-.063.144-.091s.094-.063.144-.091h0c0-.007.007-.007.014-.014.289-.183.6-.351.772-.225.13.091.1.337.022.534-.029.063-.058.126-.094.19a.893.893,0,0,0-.079.14h0a1.732,1.732,0,0,0-.274.948,1.542,1.542,0,0,1-.079.478s-.072.112-.087.126a1.143,1.143,0,0,1-.368.218,1.911,1.911,0,0,0-.39.211,1.614,1.614,0,0,0-.52.927,1.5,1.5,0,0,1-.346.709,1.664,1.664,0,0,1-.844.316,2.3,2.3,0,0,0-.945.33c-.094.07-.173.147-.253.218a1.719,1.719,0,0,1-.173.155,2.388,2.388,0,0,1-.772.344,15.48,15.48,0,0,1-4.373.73v-.028c.534-.176,2.172-.78,2.612-1.622l-.007.007Z" transform="translate(-142.47 -28.535)" fill="#fff688"/>
    <path id="Path_46" data-name="Path 46" d="M148.858,84.154a8.039,8.039,0,0,1,1.8.6,4.016,4.016,0,0,1,1.458,1.665,7.834,7.834,0,0,0,2.576,2.838,11.561,11.561,0,0,1-6.451-2.493A8.949,8.949,0,0,1,145.77,82.7l.325.253c.043.028.072.056.1.077a5.021,5.021,0,0,0,1.328.73,11.44,11.44,0,0,0,1.328.393h0Z" transform="translate(-134.819 -28.631)" fill="#fff688"/>
    <path id="Path_47" data-name="Path 47" d="M140.156,72.524a11.171,11.171,0,0,0,1.111.815,7.96,7.96,0,0,1,1.472,1.173,6.688,6.688,0,0,1,1.3,3.814c.022.176.043.351.072.534a1.791,1.791,0,0,1-.4-.421.226.226,0,0,0-.419.147c.043.2.087.4.144.6a8.923,8.923,0,0,1-3.666-3.6,8.811,8.811,0,0,1-.859-4.65c.065.119.137.232.216.351a1.029,1.029,0,0,1,.065.105,4.906,4.906,0,0,0,.981,1.138h0Z" transform="translate(-132.899 -25.127)" fill="#fff688"/>
    <path id="Path_48" data-name="Path 48" d="M137.314,60.758a7.791,7.791,0,0,1,.981,1.58,6.5,6.5,0,0,1-.094,3.968c-.029.119-.051.239-.079.358a1.293,1.293,0,0,1-.173-.435.216.216,0,0,0-.216-.183.224.224,0,0,0-.224.183,7.355,7.355,0,0,0-.094.8,8.932,8.932,0,0,1-2.287-4.657,8.656,8.656,0,0,1,.671-4.4l.007-.007v-.007l.108-.253c.022.133.051.26.079.393.014.049.022.091.029.126a4.99,4.99,0,0,0,.534,1.391,10.461,10.461,0,0,0,.765,1.131v.007Z" transform="translate(-131.839 -21.193)" fill="#fff688"/>
    <path id="Path_49" data-name="Path 49" d="M137.766,49.214a6.53,6.53,0,0,1-1.4,3.73c-.065.112-.137.225-.209.344a1.207,1.207,0,0,1,0-.323.226.226,0,0,0-.419-.148c-.108.183-.2.379-.3.576a9.313,9.313,0,0,1-.707-5.127,8.94,8.94,0,0,1,2.251-4.186c-.022.133-.036.267-.051.4a.962.962,0,0,0-.014.126,4.668,4.668,0,0,0,.058,1.482,11.287,11.287,0,0,0,.361,1.306,7.7,7.7,0,0,1,.418,1.805h0Z" transform="translate(-131.714 -17.136)" fill="#fff688"/>
    <path id="Path_50" data-name="Path 50" d="M147.495,22.04c-.029.035-.058.063-.079.091a4.754,4.754,0,0,0-.75,1.194,10.9,10.9,0,0,0-.418,1.208,7.319,7.319,0,0,1-.635,1.629,6.079,6.079,0,0,1-2.966,2.2c-.094.042-.188.084-.281.133a1.8,1.8,0,0,1,.188-.337.209.209,0,0,0,0-.281.226.226,0,0,0-.289-.049c-.209.126-.411.26-.613.4a8.4,8.4,0,0,1,2.1-4.32,8.741,8.741,0,0,1,3.969-2.128c-.079.084-.152.169-.224.26Z" transform="translate(-133.672 -10.498)" fill="#fff688"/>
    <path id="Path_51" data-name="Path 51" d="M140.546,31.457l-.13.379a.741.741,0,0,1-.043.119,4.94,4.94,0,0,0-.253,1.468c-.007.457.043.913.079,1.349a7.95,7.95,0,0,1,.043,1.847,6.344,6.344,0,0,1-2.035,3.35c-.05.049-.094.105-.144.155a1.447,1.447,0,0,1,.108-.337.213.213,0,0,0-.058-.274.224.224,0,0,0-.289.014,8.643,8.643,0,0,0-.758.773,8.786,8.786,0,0,1,.4-5.19,9.137,9.137,0,0,1,3.067-3.659h0Z" transform="translate(-132.336 -13.376)" fill="#fff688"/>
    <path id="Path_52" data-name="Path 52" d="M196.078,57.74a1.016,1.016,0,0,1-.123.4,2.017,2.017,0,0,0-.144.414,1.571,1.571,0,0,0,.26,1.025,1.529,1.529,0,0,1,.238.752,1.56,1.56,0,0,1-.4.787,2.253,2.253,0,0,0-.469.864,2.707,2.707,0,0,0-.036.33c-.007.077-.007.155-.022.232a2.37,2.37,0,0,1-.332.759,10.235,10.235,0,0,1-1.349,1.938.73.73,0,0,0-.491.126,3.631,3.631,0,0,0-.1-1.587c-.029-.084-.051-.169-.079-.246a1.185,1.185,0,0,1,.079-1.271,1.484,1.484,0,0,0,.253-.836,1.467,1.467,0,0,0-.159-.492,1.126,1.126,0,0,1-.123-.337,1.3,1.3,0,0,1,.253-.737,3.135,3.135,0,0,0,.18-.344,2.424,2.424,0,0,0,.065-1.679,2.591,2.591,0,0,0,.714-1.117,1.371,1.371,0,0,0,.065-.246.128.128,0,0,1,.014-.049c.094-.372.209-.829.469-.857.159-.014.31.183.382.379.036.1.065.2.094.309a2.165,2.165,0,0,0,.195.548,2.49,2.49,0,0,0,.281.379.921.921,0,0,1,.3.555h-.007Z" transform="translate(-147.937 -20.555)" fill="#fff688"/>
  </g>
  <g id="Group_2" data-name="Group 2" transform="translate(0 15.778)">
    <path id="Path_53" data-name="Path 53" d="M66.913,34.59c-.18.119-.541.73-.916.442s-.2-.26-.382.021-.18.295-.39.421a1.1,1.1,0,0,1-.649.162c-.267,0-.339-.028-.483-.33s-.577.225-.433.885.888.4,1.154.309.216-.246.6-.14a1.682,1.682,0,0,0,1.537-.794c.433-.618.137-1.1-.043-.983h0Z" transform="translate(-26.16 -30.309)" fill="#ed3237" fill-rule="evenodd"/>
    <path id="Path_54" data-name="Path 54" d="M107.357,76.2a1.275,1.275,0,0,0-.108-1.805,2.789,2.789,0,0,0-1.277-1.025c-.469-.021-2.258,2.823-2.251,2.845.05.119,1.27.6,1.486,1.082.491,1.089,1.8-.632,2.15-1.1h0Z" transform="translate(-37.323 -41.859)" fill="#ed3237" fill-rule="evenodd"/>
    <path id="Path_55" data-name="Path 55" d="M37.018,73.515c.144-.6-.541-.969-.866-1.173s-.989-.92-1.371-.4-1.32,1.882-1.638,2.479.505.618.938.962.382.33.505.562c.216.414,1.364-.871,1.537-1.068a4.571,4.571,0,0,0,.895-1.363h0Z" transform="translate(-17.652 -41.379)" fill="#ed3237" fill-rule="evenodd"/>
    <path id="Path_56" data-name="Path 56" d="M42.152,73.04c.159-.723-.866-1.475-1.371-1.756s-.4-.26-.649,0-.613.843-.909,1.194a6.941,6.941,0,0,0-.815,1.236c-.274.506.137.435.794.934s.512,1,1.1.7a4.961,4.961,0,0,0,1.854-2.318h0Z" transform="translate(-19.112 -41.178)" fill="#ed3237" fill-rule="evenodd"/>
    <path id="Path_57" data-name="Path 57" d="M20.643,54.819a13.726,13.726,0,0,0-1.559,2.641c-.195.513.361.752.794,1.032s.447.281.6.492c.621.836,1.01.218,1.7-.808a3.042,3.042,0,0,0,.556-1.25,1.483,1.483,0,0,0-.722-1.384,4.162,4.162,0,0,0-1.364-.723Z" transform="translate(-13.745 -36.336)" fill="#ed3237" fill-rule="evenodd"/>
    <path id="Path_58" data-name="Path 58" d="M108.453,47.6c.2-1-.159-.632-.332-.19a8.01,8.01,0,0,0-.31.913,11.824,11.824,0,0,0-.671,1.777,47.622,47.622,0,0,0-1.1,8.442c.108,1.615.9,2.037,1.746,2.023s2.085-2.971,2.1-3.68.051-1.138-.332-.26-1.566.737-1.948-.492.664-7.529.866-8.541V47.6Z" transform="translate(-37.965 -33.998)" fill="#ed3237" fill-rule="evenodd"/>
    <path id="Path_59" data-name="Path 59" d="M11.7,62.1a3.82,3.82,0,0,0,2.186,3.6,5.56,5.56,0,0,0,3.875.232,9.619,9.619,0,0,0,4.51-3.294A13.092,13.092,0,0,0,24.1,59.019a23.074,23.074,0,0,0,.967-4.214c.022-.428.051-.78.072-1.173s.014-.773.051-1.145.505-2.43.123-2.29-1.414,2.55-1.486,3.252-.051,1.229-.072,1.938.108,1.124.022,2.037a6.071,6.071,0,0,1-1.587,3.083,8.135,8.135,0,0,1-4.712,2.016,6.7,6.7,0,0,1-1.9-.119,3.259,3.259,0,0,1-2.547-1.939,7.347,7.347,0,0,1,.361-3.786c.4-.857.541-1.243.693-1.594s.786-1.531.505-1.636-1.645,2.831-1.876,3.322A12.542,12.542,0,0,0,11.7,62.1h0Z" transform="translate(-11.7 -34.96)" fill="#ed3237" fill-rule="evenodd"/>
    <path id="Path_60" data-name="Path 60" d="M40.836,54.739c-.325.162-.649.948-1.053,1.236a20,20,0,0,0-1.97,1.334c-.274.316-.274.379-.505.653a12.915,12.915,0,0,0-.613,1.334,5.279,5.279,0,0,1-2.576,2.536c-.188.105-2.172,1.131-2.237,1.222-.123.162-.361.674-.051.745a7.719,7.719,0,0,0,3.557-1.025c.722-.513,1.277-2.4,1.681-2.943a3.08,3.08,0,0,1,1.27-1.075,3.807,3.807,0,0,0,1.393-.962c.31-.386.649-1.194.844-1.475s.584-1.756.267-1.594h0Z" transform="translate(-17.263 -36.306)" fill="#ed3237" fill-rule="evenodd"/>
    <path id="Path_61" data-name="Path 61" d="M100.8,37.39a1.275,1.275,0,0,0-.108-1.805,2.764,2.764,0,0,0-1.284-1.025c-.469-.021-2.258,2.823-2.251,2.845.051.119,1.27.6,1.486,1.082.491,1.089,1.8-.632,2.15-1.1h0Z" transform="translate(-35.496 -30.307)" fill="#ed3237" fill-rule="evenodd"/>
    <path id="Path_62" data-name="Path 62" d="M49.367,42.665a14.855,14.855,0,0,0-1.176,2.55c-.108.379-.281.948-.39,1.475-.317,1.566-.3,3.315-.6,4.888-.144.759-.216,1.3-.267,1.594s-.433,1.658-.051,1.194a14.955,14.955,0,0,0,1.176-2.55,14.664,14.664,0,0,0,.649-3.02c.087-.723.195-1.039.238-1.615A18.671,18.671,0,0,1,49.382,44c.072-.253.188-1.51-.022-1.327h0Z" transform="translate(-21.45 -32.717)" fill="#ed3237" fill-rule="evenodd"/>
    <path id="Path_63" data-name="Path 63" d="M36.711,44.579a12.3,12.3,0,0,0-1.032,2.381,24.433,24.433,0,0,0-.628,2.852,29.665,29.665,0,0,0-.339,3.09,7.376,7.376,0,0,1-.238,1.468c-.058.281-.693,1.742-.022,1.145s1.609-4.116,1.8-5.169.238-2.374.332-3.111.159-1.138.238-1.5.137-.428.173-.674-.094-.6-.289-.492Z" transform="translate(-17.95 -33.282)" fill="#ed3237" fill-rule="evenodd"/>
    <path id="Path_64" data-name="Path 64" d="M109.1,28.649c-1.472.955-2.417,1.665-4.062,2.564-2.23,1.222-4.488,2.458-6.783,3.561-1.14.548-4.459,2.4-5.282,3.463a11.436,11.436,0,0,0-1.71,2.62A35.824,35.824,0,0,0,89.6,45.7a4.936,4.936,0,0,1-2.785,3.744,25.307,25.307,0,0,1-6.559,2.079,50.913,50.913,0,0,1-8.983.421c-1.782-.14-2.5-.365-3.168-.913s-.411-1.475-.628-1.454-.375,1.412-.455,1.826a5.324,5.324,0,0,0-.144,1.9c.094,1,1.616,1.426,2.836,1.636a34.441,34.441,0,0,0,7.547-.14c2.8-.351,7.5-1.552,9.734-3.673.159-.155,2.064-2.416,2.092-2.381.079.091-.253,1.32-.289,1.8s-.079,1.025-.166,1.917-.159,2.409.844,3.3,2.013-.218,2.424-.983a11.577,11.577,0,0,0,.96-2.388c.079-.358.022-.632-.115-.625-.231.007-.577,1.861-2.049.492a2.891,2.891,0,0,1-.541-1.784A31.533,31.533,0,0,1,91.2,43.6c.216-.955.52-2.079.83-3.006.238-.723.44-.92,1.3-1.517s4.373-2.536,5.65-3.252c3.124-1.749,6.617-3.42,9.568-5.331a3.5,3.5,0,0,0,.931-1.1c.238-.435.346-1.2-.339-.752h0Z" transform="translate(-27.056 -28.505)" fill="#ed3237" fill-rule="evenodd"/>
    <path id="Path_65" data-name="Path 65" d="M52.263,49.211c-.072-.183-.238-.3-.433.049a33.706,33.706,0,0,0-2.691,5.612,11.4,11.4,0,0,0-.527,4.376,5.613,5.613,0,0,0,1.082,2.711,4.652,4.652,0,0,0,4.517.885,7.866,7.866,0,0,0,4.769-4.1A13.971,13.971,0,0,0,60.07,56c.274-1.032.909-3.147-.188-4.039-.173-.14-.375-.295-.577-.428-.483-.323-.909-.632-.866-1.1a4.282,4.282,0,0,1,.39-.934,7.719,7.719,0,0,1,.4-.843c.173-.316.123-.309.455-.126a1.376,1.376,0,0,0,1.378.155,2.965,2.965,0,0,0,1.219-1.327,4.6,4.6,0,0,0,.505-1.629c.051-.492-.3-1.5-.729-1.433s-.455,1.047-.909.962-.649-.14-.866-.822a8.723,8.723,0,0,1,.072-3.062,3.474,3.474,0,0,0,.144-.752c.022-.26-.166-.688-.339-.351a16.711,16.711,0,0,0-.75,2.4c-.18.794-.281,1.833-.4,2.6-.144.906-.144,1.58-.267,2.458a10.315,10.315,0,0,1-1.053,2.725,5.732,5.732,0,0,0-.808,2.536c.087,1.187,1.046,1.426,1.818,1.742s1.284.7.209,2.184A6.917,6.917,0,0,1,53.4,59.564c-1.768-.007-2.958-.569-3.521-2.332A5.423,5.423,0,0,1,50,54.788a16.459,16.459,0,0,1,1.147-3.125,11.9,11.9,0,0,0,1.1-2.458h0Z" transform="translate(-21.965 -31.972)" fill="#ed3237" fill-rule="evenodd"/>
  </g>
</svg>
